<svg xmlns="http://www.w3.org/2000/svg" xmlns:xlink="http://www.w3.org/1999/xlink" width="500" zoomAndPan="magnify" viewBox="0 0 375 374.999991" height="500" preserveAspectRatio="xMidYMid meet" version="1.0"><defs><g/></defs><g fill="#fffafa" fill-opacity="1"><g transform="translate(3.867192, 274.444288)"><g><path d="M 6.6875 0 L 6.6875 -53.34375 L 41.6875 -53.34375 L 41.6875 -48.6875 L 11.9375 -48.6875 L 11.9375 -29.078125 L 37.03125 -29.078125 L 37.03125 -24.71875 L 11.9375 -24.71875 L 11.9375 0 Z M 6.6875 0 "/></g></g></g><g fill="#fffafa" fill-opacity="1"><g transform="translate(48.111238, 274.444288)"><g><path d="M 22.3125 0.75 C 19.507812 0.75 16.914062 0.210938 14.53125 -0.859375 C 12.15625 -1.941406 10.101562 -3.421875 8.375 -5.296875 C 6.644531 -7.171875 5.304688 -9.320312 4.359375 -11.75 C 3.410156 -14.1875 2.9375 -16.753906 2.9375 -19.453125 C 2.9375 -22.265625 3.410156 -24.882812 4.359375 -27.3125 C 5.304688 -29.738281 6.65625 -31.890625 8.40625 -33.765625 C 10.164062 -35.640625 12.234375 -37.113281 14.609375 -38.1875 C 16.992188 -39.269531 19.585938 -39.8125 22.390625 -39.8125 C 25.191406 -39.8125 27.769531 -39.269531 30.125 -38.1875 C 32.476562 -37.113281 34.53125 -35.640625 36.28125 -33.765625 C 38.039062 -31.890625 39.394531 -29.738281 40.34375 -27.3125 C 41.289062 -24.882812 41.765625 -22.265625 41.765625 -19.453125 C 41.765625 -16.753906 41.289062 -14.1875 40.34375 -11.75 C 39.394531 -9.320312 38.054688 -7.171875 36.328125 -5.296875 C 34.597656 -3.421875 32.539062 -1.941406 30.15625 -0.859375 C 27.78125 0.210938 25.164062 0.75 22.3125 0.75 Z M 8.109375 -19.375 C 8.109375 -16.476562 8.742188 -13.835938 10.015625 -11.453125 C 11.296875 -9.078125 13.015625 -7.195312 15.171875 -5.8125 C 17.328125 -4.4375 19.707031 -3.75 22.3125 -3.75 C 24.914062 -3.75 27.289062 -4.453125 29.4375 -5.859375 C 31.59375 -7.265625 33.320312 -9.179688 34.625 -11.609375 C 35.925781 -14.035156 36.578125 -16.675781 36.578125 -19.53125 C 36.578125 -22.4375 35.925781 -25.09375 34.625 -27.5 C 33.320312 -29.90625 31.59375 -31.804688 29.4375 -33.203125 C 27.289062 -34.609375 24.914062 -35.3125 22.3125 -35.3125 C 19.707031 -35.3125 17.335938 -34.582031 15.203125 -33.125 C 13.078125 -31.675781 11.363281 -29.757812 10.0625 -27.375 C 8.757812 -25 8.109375 -22.332031 8.109375 -19.375 Z M 8.109375 -19.375 "/></g></g></g><g fill="#fffafa" fill-opacity="1"><g transform="translate(92.805986, 274.444288)"><g><path d="M 18.484375 0.75 C 15.273438 0.75 12.289062 0.222656 9.53125 -0.828125 C 6.78125 -1.878906 4.40625 -3.484375 2.40625 -5.640625 L 4.5 -9.234375 C 6.707031 -7.179688 8.925781 -5.691406 11.15625 -4.765625 C 13.382812 -3.835938 15.75 -3.375 18.25 -3.375 C 21.3125 -3.375 23.789062 -3.988281 25.6875 -5.21875 C 27.59375 -6.445312 28.546875 -8.210938 28.546875 -10.515625 C 28.546875 -12.066406 28.082031 -13.253906 27.15625 -14.078125 C 26.226562 -14.910156 24.898438 -15.585938 23.171875 -16.109375 C 21.441406 -16.640625 19.378906 -17.203125 16.984375 -17.796875 C 14.273438 -18.554688 12.003906 -19.347656 10.171875 -20.171875 C 8.347656 -20.992188 6.972656 -22.039062 6.046875 -23.3125 C 5.117188 -24.59375 4.65625 -26.265625 4.65625 -28.328125 C 4.65625 -30.878906 5.289062 -32.992188 6.5625 -34.671875 C 7.84375 -36.347656 9.597656 -37.625 11.828125 -38.5 C 14.054688 -39.375 16.550781 -39.8125 19.3125 -39.8125 C 22.3125 -39.8125 24.960938 -39.335938 27.265625 -38.390625 C 29.566406 -37.441406 31.445312 -36.113281 32.90625 -34.40625 L 30.421875 -30.953125 C 29.023438 -32.554688 27.359375 -33.742188 25.421875 -34.515625 C 23.492188 -35.296875 21.351562 -35.6875 19 -35.6875 C 17.40625 -35.6875 15.878906 -35.472656 14.421875 -35.046875 C 12.972656 -34.617188 11.785156 -33.914062 10.859375 -32.9375 C 9.929688 -31.96875 9.46875 -30.628906 9.46875 -28.921875 C 9.46875 -27.515625 9.816406 -26.421875 10.515625 -25.640625 C 11.210938 -24.867188 12.265625 -24.21875 13.671875 -23.6875 C 15.078125 -23.164062 16.804688 -22.609375 18.859375 -22.015625 C 21.804688 -21.210938 24.382812 -20.394531 26.59375 -19.5625 C 28.800781 -18.738281 30.503906 -17.675781 31.703125 -16.375 C 32.898438 -15.070312 33.5 -13.242188 33.5 -10.890625 C 33.5 -7.234375 32.117188 -4.378906 29.359375 -2.328125 C 26.609375 -0.273438 22.984375 0.75 18.484375 0.75 Z M 18.484375 0.75 "/></g></g></g><g fill="#fffafa" fill-opacity="1"><g transform="translate(129.087612, 274.444288)"><g><path d="M 24.421875 -1.875 C 24.015625 -1.726562 23.382812 -1.453125 22.53125 -1.046875 C 21.6875 -0.648438 20.660156 -0.300781 19.453125 0 C 18.253906 0.300781 16.953125 0.453125 15.546875 0.453125 C 14.097656 0.453125 12.734375 0.175781 11.453125 -0.375 C 10.179688 -0.925781 9.164062 -1.765625 8.40625 -2.890625 C 7.65625 -4.015625 7.28125 -5.40625 7.28125 -7.0625 L 7.28125 -35.078125 L 1.875 -35.078125 L 1.875 -39.140625 L 7.28125 -39.140625 L 7.28125 -52.359375 L 12.390625 -52.359375 L 12.390625 -39.140625 L 21.40625 -39.140625 L 21.40625 -35.078125 L 12.390625 -35.078125 L 12.390625 -8.484375 C 12.492188 -7.085938 13.007812 -6.035156 13.9375 -5.328125 C 14.863281 -4.628906 15.925781 -4.28125 17.125 -4.28125 C 18.53125 -4.28125 19.804688 -4.515625 20.953125 -4.984375 C 22.109375 -5.460938 22.8125 -5.804688 23.0625 -6.015625 Z M 24.421875 -1.875 "/></g></g></g><g fill="#fffafa" fill-opacity="1"><g transform="translate(154.251886, 274.444288)"><g><path d="M 22.53125 0.75 C 19.726562 0.75 17.125 0.210938 14.71875 -0.859375 C 12.320312 -1.941406 10.242188 -3.421875 8.484375 -5.296875 C 6.734375 -7.171875 5.367188 -9.332031 4.390625 -11.78125 C 3.421875 -14.238281 2.9375 -16.875 2.9375 -19.6875 C 2.9375 -23.34375 3.773438 -26.695312 5.453125 -29.75 C 7.128906 -32.800781 9.441406 -35.238281 12.390625 -37.0625 C 15.347656 -38.894531 18.707031 -39.8125 22.46875 -39.8125 C 26.320312 -39.8125 29.6875 -38.882812 32.5625 -37.03125 C 35.445312 -35.175781 37.710938 -32.734375 39.359375 -29.703125 C 41.015625 -26.679688 41.84375 -23.367188 41.84375 -19.765625 C 41.84375 -19.359375 41.84375 -18.96875 41.84375 -18.59375 C 41.84375 -18.21875 41.816406 -17.929688 41.765625 -17.734375 L 8.265625 -17.734375 C 8.515625 -14.921875 9.300781 -12.425781 10.625 -10.25 C 11.957031 -8.070312 13.6875 -6.34375 15.8125 -5.0625 C 17.9375 -3.789062 20.253906 -3.15625 22.765625 -3.15625 C 25.316406 -3.15625 27.734375 -3.804688 30.015625 -5.109375 C 32.296875 -6.410156 33.882812 -8.113281 34.78125 -10.21875 L 39.21875 -9.015625 C 38.414062 -7.160156 37.1875 -5.484375 35.53125 -3.984375 C 33.882812 -2.484375 31.945312 -1.316406 29.71875 -0.484375 C 27.488281 0.335938 25.09375 0.75 22.53125 0.75 Z M 8.109375 -21.40625 L 37.03125 -21.40625 C 36.832031 -24.257812 36.066406 -26.765625 34.734375 -28.921875 C 33.410156 -31.078125 31.6875 -32.765625 29.5625 -33.984375 C 27.4375 -35.210938 25.09375 -35.828125 22.53125 -35.828125 C 19.976562 -35.828125 17.648438 -35.210938 15.546875 -33.984375 C 13.441406 -32.765625 11.722656 -31.066406 10.390625 -28.890625 C 9.066406 -26.710938 8.304688 -24.21875 8.109375 -21.40625 Z M 8.109375 -21.40625 "/></g></g></g><g fill="#fffafa" fill-opacity="1"><g transform="translate(198.345694, 274.444288)"><g><path d="M 25.171875 -34.625 C 21.765625 -34.53125 18.769531 -33.582031 16.1875 -31.78125 C 13.613281 -29.976562 11.800781 -27.5 10.75 -24.34375 L 10.75 0 L 5.640625 0 L 5.640625 -39.140625 L 10.4375 -39.140625 L 10.4375 -29.75 C 11.789062 -32.5 13.582031 -34.722656 15.8125 -36.421875 C 18.039062 -38.128906 20.40625 -39.085938 22.90625 -39.296875 C 23.414062 -39.335938 23.859375 -39.359375 24.234375 -39.359375 C 24.609375 -39.359375 24.921875 -39.335938 25.171875 -39.296875 Z M 25.171875 -34.625 "/></g></g></g><g fill="#fffafa" fill-opacity="1"><g transform="translate(224.711827, 274.444288)"><g><path d="M 48.75 -53.34375 L 48.75 0 L 43.578125 0 L 43.578125 -24.9375 L 11.9375 -24.9375 L 11.9375 0 L 6.6875 0 L 6.6875 -53.34375 L 11.9375 -53.34375 L 11.9375 -29.59375 L 43.578125 -29.59375 L 43.578125 -53.34375 Z M 48.75 -53.34375 "/></g></g></g><g fill="#fffafa" fill-opacity="1"><g transform="translate(280.148355, 274.444288)"><g><path d="M 5.265625 -16.15625 L 5.265625 -39.140625 L 10.375 -39.140625 L 10.375 -17.046875 C 10.375 -12.597656 11.132812 -9.269531 12.65625 -7.0625 C 14.1875 -4.851562 16.453125 -3.75 19.453125 -3.75 C 21.460938 -3.75 23.40625 -4.1875 25.28125 -5.0625 C 27.15625 -5.945312 28.816406 -7.203125 30.265625 -8.828125 C 31.722656 -10.453125 32.828125 -12.34375 33.578125 -14.5 L 33.578125 -39.140625 L 38.6875 -39.140625 L 38.6875 -6.15625 C 38.6875 -5.457031 38.835938 -4.941406 39.140625 -4.609375 C 39.441406 -4.285156 39.894531 -4.101562 40.5 -4.0625 L 40.5 0 C 39.894531 0.0507812 39.414062 0.0859375 39.0625 0.109375 C 38.71875 0.140625 38.394531 0.15625 38.09375 0.15625 C 37.082031 0.0507812 36.210938 -0.347656 35.484375 -1.046875 C 34.765625 -1.753906 34.378906 -2.609375 34.328125 -3.609375 L 34.1875 -8.859375 C 32.476562 -5.859375 30.160156 -3.503906 27.234375 -1.796875 C 24.304688 -0.0976562 21.140625 0.75 17.734375 0.75 C 13.617188 0.75 10.507812 -0.675781 8.40625 -3.53125 C 6.3125 -6.382812 5.265625 -10.59375 5.265625 -16.15625 Z M 5.265625 -16.15625 "/></g></g></g><g fill="#fffafa" fill-opacity="1"><g transform="translate(324.767973, 274.444288)"><g><path d="M 24.796875 0.75 C 21.734375 0.75 18.898438 -0.0351562 16.296875 -1.609375 C 13.691406 -3.191406 11.664062 -5.1875 10.21875 -7.59375 L 10.21875 0 L 5.640625 0 L 5.640625 -54.84375 L 10.75 -54.84375 L 10.75 -30.953125 C 12.5 -33.609375 14.597656 -35.75 17.046875 -37.375 C 19.503906 -39 22.363281 -39.8125 25.625 -39.8125 C 28.375 -39.8125 30.835938 -39.234375 33.015625 -38.078125 C 35.191406 -36.929688 37.054688 -35.394531 38.609375 -33.46875 C 40.160156 -31.539062 41.335938 -29.359375 42.140625 -26.921875 C 42.941406 -24.492188 43.34375 -22.003906 43.34375 -19.453125 C 43.34375 -16.703125 42.878906 -14.125 41.953125 -11.71875 C 41.023438 -9.3125 39.707031 -7.171875 38 -5.296875 C 36.300781 -3.421875 34.335938 -1.941406 32.109375 -0.859375 C 29.878906 0.210938 27.441406 0.75 24.796875 0.75 Z M 23.59375 -3.75 C 25.695312 -3.75 27.648438 -4.175781 29.453125 -5.03125 C 31.253906 -5.882812 32.804688 -7.0625 34.109375 -8.5625 C 35.410156 -10.0625 36.410156 -11.75 37.109375 -13.625 C 37.804688 -15.507812 38.15625 -17.453125 38.15625 -19.453125 C 38.15625 -22.210938 37.566406 -24.804688 36.390625 -27.234375 C 35.210938 -29.660156 33.582031 -31.613281 31.5 -33.09375 C 29.425781 -34.570312 26.988281 -35.3125 24.1875 -35.3125 C 22.1875 -35.3125 20.320312 -34.859375 18.59375 -33.953125 C 16.863281 -33.054688 15.332031 -31.867188 14 -30.390625 C 12.675781 -28.910156 11.59375 -27.296875 10.75 -25.546875 L 10.75 -13.375 C 10.945312 -12.019531 11.46875 -10.753906 12.3125 -9.578125 C 13.164062 -8.398438 14.226562 -7.382812 15.5 -6.53125 C 16.78125 -5.6875 18.125 -5.007812 19.53125 -4.5 C 20.9375 -4 22.289062 -3.75 23.59375 -3.75 Z M 23.59375 -3.75 "/></g></g></g><path fill="#046307" d="M 126.203125 134.984375 C 126.644531 147.78125 137.378906 157.796875 150.171875 157.351562 C 154.367188 157.207031 158.261719 155.957031 161.585938 153.890625 C 159.488281 149.523438 154.953125 146.582031 149.804688 146.761719 C 142.859375 147 137.035156 141.5625 136.792969 134.617188 C 136.554688 127.671875 141.988281 121.847656 148.933594 121.605469 C 154.082031 121.425781 158.402344 118.179688 160.195312 113.679688 C 156.734375 111.847656 152.761719 110.871094 148.566406 111.015625 C 135.773438 111.457031 125.757812 122.191406 126.203125 134.984375 Z M 146.972656 126.511719 C 151.25 126.363281 154.839844 129.710938 154.988281 133.988281 C 155.136719 138.265625 151.785156 141.855469 147.507812 142.003906 C 143.230469 142.152344 139.640625 138.804688 139.492188 134.527344 C 139.34375 130.246094 142.695312 126.660156 146.972656 126.511719 Z M 146.972656 126.511719 " fill-opacity="1" fill-rule="evenodd"/><path fill="#d96c3c" d="M 157.011719 199.8125 C 169.316406 203.34375 182.160156 196.230469 185.691406 183.925781 C 186.847656 179.890625 186.863281 175.800781 185.925781 171.996094 C 181.125 172.644531 176.925781 176.046875 175.503906 181 C 173.585938 187.679688 166.617188 191.542969 159.9375 189.625 C 153.257812 187.707031 149.394531 180.738281 151.3125 174.058594 C 152.734375 169.105469 150.976562 163.992188 147.253906 160.898438 C 144.441406 163.625 142.28125 167.097656 141.125 171.132812 C 137.59375 183.4375 144.707031 196.28125 157.011719 199.8125 Z M 155.371094 177.4375 C 156.550781 173.324219 160.84375 170.945312 164.960938 172.125 C 169.074219 173.308594 171.453125 177.601562 170.269531 181.714844 C 169.089844 185.828125 164.796875 188.210938 160.683594 187.027344 C 156.566406 185.847656 154.1875 181.550781 155.371094 177.4375 Z M 155.371094 177.4375 " fill-opacity="1" fill-rule="evenodd"/><path fill="#ffb6c1" d="M 228.1875 190.539062 C 235.347656 179.925781 232.550781 165.515625 221.9375 158.351562 C 218.460938 156.007812 214.574219 154.730469 210.667969 154.445312 C 209.800781 159.210938 211.738281 164.257812 216.007812 167.136719 C 221.769531 171.027344 223.289062 178.847656 219.402344 184.609375 C 215.515625 190.371094 207.691406 191.890625 201.929688 188.003906 C 197.660156 185.121094 192.253906 185.210938 188.164062 187.796875 C 189.886719 191.3125 192.523438 194.441406 196.003906 196.785156 C 206.613281 203.949219 221.027344 201.148438 228.1875 190.539062 Z M 206.402344 185.1875 C 202.851562 182.792969 201.917969 177.972656 204.3125 174.425781 C 206.707031 170.878906 211.523438 169.941406 215.074219 172.335938 C 218.621094 174.730469 219.558594 179.550781 217.164062 183.097656 C 214.769531 186.648438 209.949219 187.582031 206.402344 185.1875 Z M 206.402344 185.1875 " fill-opacity="1" fill-rule="evenodd"/><path fill="#10588c" d="M 241.359375 119.980469 C 233.476562 109.890625 218.90625 108.101562 208.816406 115.980469 C 205.511719 118.5625 203.09375 121.863281 201.621094 125.492188 C 205.882812 127.789062 211.28125 127.503906 215.339844 124.332031 C 220.816406 120.054688 228.726562 121.027344 233.003906 126.503906 C 237.285156 131.980469 236.308594 139.890625 230.835938 144.167969 C 226.773438 147.339844 225.1875 152.507812 226.386719 157.199219 C 230.261719 156.648438 234.050781 155.105469 237.359375 152.523438 C 247.445312 144.640625 249.238281 130.070312 241.359375 119.980469 Z M 229.539062 139.046875 C 226.164062 141.683594 221.292969 141.085938 218.65625 137.710938 C 216.023438 134.335938 216.621094 129.464844 219.996094 126.828125 C 223.367188 124.195312 228.242188 124.792969 230.875 128.167969 C 233.511719 131.542969 232.910156 136.414062 229.539062 139.046875 Z M 229.539062 139.046875 " fill-opacity="1" fill-rule="evenodd"/><path fill="#50c4b7" d="M 178.324219 85.652344 C 166.292969 90.03125 160.085938 103.335938 164.464844 115.367188 C 165.898438 119.308594 168.292969 122.628906 171.285156 125.152344 C 174.789062 121.804688 176.183594 116.585938 174.421875 111.742188 C 172.046875 105.210938 175.414062 97.988281 181.945312 95.613281 C 188.476562 93.238281 195.699219 96.605469 198.074219 103.136719 C 199.835938 107.980469 204.261719 111.082031 209.09375 111.394531 C 209.765625 107.539062 209.46875 103.457031 208.035156 99.515625 C 203.660156 87.484375 190.351562 81.277344 178.324219 85.652344 Z M 192.804688 102.785156 C 194.269531 106.808594 192.195312 111.257812 188.171875 112.722656 C 184.148438 114.183594 179.699219 112.109375 178.234375 108.085938 C 176.773438 104.066406 178.847656 99.617188 182.871094 98.152344 C 186.894531 96.6875 191.34375 98.765625 192.804688 102.785156 Z M 192.804688 102.785156 " fill-opacity="1" fill-rule="evenodd"/></svg>