<svg xmlns="http://www.w3.org/2000/svg" xmlns:xlink="http://www.w3.org/1999/xlink" width="500" zoomAndPan="magnify" viewBox="0 0 375 374.999991" height="500" preserveAspectRatio="xMidYMid meet" version="1.0"><defs><g/><clipPath id="9c713a1255"><rect x="0" width="369" y="0" height="90"/></clipPath></defs><g transform="matrix(1, 0, 0, 1, 3, 160)"><g clip-path="url(#9c713a1255)"><g fill="#333333" fill-opacity="1"><g transform="translate(0.867751, 71.465414)"><g><path d="M 6.6875 0 L 6.6875 -53.34375 L 41.6875 -53.34375 L 41.6875 -48.6875 L 11.9375 -48.6875 L 11.9375 -29.078125 L 37.03125 -29.078125 L 37.03125 -24.71875 L 11.9375 -24.71875 L 11.9375 0 Z M 6.6875 0 "/></g></g></g><g fill="#333333" fill-opacity="1"><g transform="translate(45.112307, 71.465414)"><g><path d="M 22.3125 0.75 C 19.507812 0.75 16.914062 0.210938 14.53125 -0.859375 C 12.15625 -1.941406 10.101562 -3.421875 8.375 -5.296875 C 6.644531 -7.171875 5.304688 -9.320312 4.359375 -11.75 C 3.410156 -14.1875 2.9375 -16.753906 2.9375 -19.453125 C 2.9375 -22.265625 3.410156 -24.882812 4.359375 -27.3125 C 5.304688 -29.738281 6.65625 -31.890625 8.40625 -33.765625 C 10.164062 -35.640625 12.234375 -37.113281 14.609375 -38.1875 C 16.992188 -39.269531 19.585938 -39.8125 22.390625 -39.8125 C 25.191406 -39.8125 27.769531 -39.269531 30.125 -38.1875 C 32.476562 -37.113281 34.53125 -35.640625 36.28125 -33.765625 C 38.039062 -31.890625 39.394531 -29.738281 40.34375 -27.3125 C 41.289062 -24.882812 41.765625 -22.265625 41.765625 -19.453125 C 41.765625 -16.753906 41.289062 -14.1875 40.34375 -11.75 C 39.394531 -9.320312 38.054688 -7.171875 36.328125 -5.296875 C 34.597656 -3.421875 32.539062 -1.941406 30.15625 -0.859375 C 27.78125 0.210938 25.164062 0.75 22.3125 0.75 Z M 8.109375 -19.375 C 8.109375 -16.476562 8.742188 -13.835938 10.015625 -11.453125 C 11.296875 -9.078125 13.015625 -7.195312 15.171875 -5.8125 C 17.328125 -4.4375 19.707031 -3.75 22.3125 -3.75 C 24.914062 -3.75 27.289062 -4.453125 29.4375 -5.859375 C 31.59375 -7.265625 33.320312 -9.179688 34.625 -11.609375 C 35.925781 -14.035156 36.578125 -16.675781 36.578125 -19.53125 C 36.578125 -22.4375 35.925781 -25.09375 34.625 -27.5 C 33.320312 -29.90625 31.59375 -31.804688 29.4375 -33.203125 C 27.289062 -34.609375 24.914062 -35.3125 22.3125 -35.3125 C 19.707031 -35.3125 17.335938 -34.582031 15.203125 -33.125 C 13.078125 -31.675781 11.363281 -29.757812 10.0625 -27.375 C 8.757812 -25 8.109375 -22.332031 8.109375 -19.375 Z M 8.109375 -19.375 "/></g></g></g><g fill="#333333" fill-opacity="1"><g transform="translate(89.807572, 71.465414)"><g><path d="M 18.484375 0.75 C 15.273438 0.75 12.289062 0.222656 9.53125 -0.828125 C 6.78125 -1.878906 4.40625 -3.484375 2.40625 -5.640625 L 4.5 -9.234375 C 6.707031 -7.179688 8.925781 -5.691406 11.15625 -4.765625 C 13.382812 -3.835938 15.75 -3.375 18.25 -3.375 C 21.3125 -3.375 23.789062 -3.988281 25.6875 -5.21875 C 27.59375 -6.445312 28.546875 -8.210938 28.546875 -10.515625 C 28.546875 -12.066406 28.082031 -13.253906 27.15625 -14.078125 C 26.226562 -14.910156 24.898438 -15.585938 23.171875 -16.109375 C 21.441406 -16.640625 19.378906 -17.203125 16.984375 -17.796875 C 14.273438 -18.554688 12.003906 -19.347656 10.171875 -20.171875 C 8.347656 -20.992188 6.972656 -22.039062 6.046875 -23.3125 C 5.117188 -24.59375 4.65625 -26.265625 4.65625 -28.328125 C 4.65625 -30.878906 5.289062 -32.992188 6.5625 -34.671875 C 7.84375 -36.347656 9.597656 -37.625 11.828125 -38.5 C 14.054688 -39.375 16.550781 -39.8125 19.3125 -39.8125 C 22.3125 -39.8125 24.960938 -39.335938 27.265625 -38.390625 C 29.566406 -37.441406 31.445312 -36.113281 32.90625 -34.40625 L 30.421875 -30.953125 C 29.023438 -32.554688 27.359375 -33.742188 25.421875 -34.515625 C 23.492188 -35.296875 21.351562 -35.6875 19 -35.6875 C 17.40625 -35.6875 15.878906 -35.472656 14.421875 -35.046875 C 12.972656 -34.617188 11.785156 -33.914062 10.859375 -32.9375 C 9.929688 -31.96875 9.46875 -30.628906 9.46875 -28.921875 C 9.46875 -27.515625 9.816406 -26.421875 10.515625 -25.640625 C 11.210938 -24.867188 12.265625 -24.21875 13.671875 -23.6875 C 15.078125 -23.164062 16.804688 -22.609375 18.859375 -22.015625 C 21.804688 -21.210938 24.382812 -20.394531 26.59375 -19.5625 C 28.800781 -18.738281 30.503906 -17.675781 31.703125 -16.375 C 32.898438 -15.070312 33.5 -13.242188 33.5 -10.890625 C 33.5 -7.234375 32.117188 -4.378906 29.359375 -2.328125 C 26.609375 -0.273438 22.984375 0.75 18.484375 0.75 Z M 18.484375 0.75 "/></g></g></g><g fill="#333333" fill-opacity="1"><g transform="translate(126.089606, 71.465414)"><g><path d="M 24.421875 -1.875 C 24.015625 -1.726562 23.382812 -1.453125 22.53125 -1.046875 C 21.6875 -0.648438 20.660156 -0.300781 19.453125 0 C 18.253906 0.300781 16.953125 0.453125 15.546875 0.453125 C 14.097656 0.453125 12.734375 0.175781 11.453125 -0.375 C 10.179688 -0.925781 9.164062 -1.765625 8.40625 -2.890625 C 7.65625 -4.015625 7.28125 -5.40625 7.28125 -7.0625 L 7.28125 -35.078125 L 1.875 -35.078125 L 1.875 -39.140625 L 7.28125 -39.140625 L 7.28125 -52.359375 L 12.390625 -52.359375 L 12.390625 -39.140625 L 21.40625 -39.140625 L 21.40625 -35.078125 L 12.390625 -35.078125 L 12.390625 -8.484375 C 12.492188 -7.085938 13.007812 -6.035156 13.9375 -5.328125 C 14.863281 -4.628906 15.925781 -4.28125 17.125 -4.28125 C 18.53125 -4.28125 19.804688 -4.515625 20.953125 -4.984375 C 22.109375 -5.460938 22.8125 -5.804688 23.0625 -6.015625 Z M 24.421875 -1.875 "/></g></g></g><g fill="#333333" fill-opacity="1"><g transform="translate(151.254171, 71.465414)"><g><path d="M 22.53125 0.75 C 19.726562 0.75 17.125 0.210938 14.71875 -0.859375 C 12.320312 -1.941406 10.242188 -3.421875 8.484375 -5.296875 C 6.734375 -7.171875 5.367188 -9.332031 4.390625 -11.78125 C 3.421875 -14.238281 2.9375 -16.875 2.9375 -19.6875 C 2.9375 -23.34375 3.773438 -26.695312 5.453125 -29.75 C 7.128906 -32.800781 9.441406 -35.238281 12.390625 -37.0625 C 15.347656 -38.894531 18.707031 -39.8125 22.46875 -39.8125 C 26.320312 -39.8125 29.6875 -38.882812 32.5625 -37.03125 C 35.445312 -35.175781 37.710938 -32.734375 39.359375 -29.703125 C 41.015625 -26.679688 41.84375 -23.367188 41.84375 -19.765625 C 41.84375 -19.359375 41.84375 -18.96875 41.84375 -18.59375 C 41.84375 -18.21875 41.816406 -17.929688 41.765625 -17.734375 L 8.265625 -17.734375 C 8.515625 -14.921875 9.300781 -12.425781 10.625 -10.25 C 11.957031 -8.070312 13.6875 -6.34375 15.8125 -5.0625 C 17.9375 -3.789062 20.253906 -3.15625 22.765625 -3.15625 C 25.316406 -3.15625 27.734375 -3.804688 30.015625 -5.109375 C 32.296875 -6.410156 33.882812 -8.113281 34.78125 -10.21875 L 39.21875 -9.015625 C 38.414062 -7.160156 37.1875 -5.484375 35.53125 -3.984375 C 33.882812 -2.484375 31.945312 -1.316406 29.71875 -0.484375 C 27.488281 0.335938 25.09375 0.75 22.53125 0.75 Z M 8.109375 -21.40625 L 37.03125 -21.40625 C 36.832031 -24.257812 36.066406 -26.765625 34.734375 -28.921875 C 33.410156 -31.078125 31.6875 -32.765625 29.5625 -33.984375 C 27.4375 -35.210938 25.09375 -35.828125 22.53125 -35.828125 C 19.976562 -35.828125 17.648438 -35.210938 15.546875 -33.984375 C 13.441406 -32.765625 11.722656 -31.066406 10.390625 -28.890625 C 9.066406 -26.710938 8.304688 -24.21875 8.109375 -21.40625 Z M 8.109375 -21.40625 "/></g></g></g><g fill="#333333" fill-opacity="1"><g transform="translate(195.348486, 71.465414)"><g><path d="M 25.171875 -34.625 C 21.765625 -34.53125 18.769531 -33.582031 16.1875 -31.78125 C 13.613281 -29.976562 11.800781 -27.5 10.75 -24.34375 L 10.75 0 L 5.640625 0 L 5.640625 -39.140625 L 10.4375 -39.140625 L 10.4375 -29.75 C 11.789062 -32.5 13.582031 -34.722656 15.8125 -36.421875 C 18.039062 -38.128906 20.40625 -39.085938 22.90625 -39.296875 C 23.414062 -39.335938 23.859375 -39.359375 24.234375 -39.359375 C 24.609375 -39.359375 24.921875 -39.335938 25.171875 -39.296875 Z M 25.171875 -34.625 "/></g></g></g><g fill="#333333" fill-opacity="1"><g transform="translate(221.714937, 71.465414)"><g><path d="M 48.75 -53.34375 L 48.75 0 L 43.578125 0 L 43.578125 -24.9375 L 11.9375 -24.9375 L 11.9375 0 L 6.6875 0 L 6.6875 -53.34375 L 11.9375 -53.34375 L 11.9375 -29.59375 L 43.578125 -29.59375 L 43.578125 -53.34375 Z M 48.75 -53.34375 "/></g></g></g><g fill="#333333" fill-opacity="1"><g transform="translate(277.152087, 71.465414)"><g><path d="M 5.265625 -16.15625 L 5.265625 -39.140625 L 10.375 -39.140625 L 10.375 -17.046875 C 10.375 -12.597656 11.132812 -9.269531 12.65625 -7.0625 C 14.1875 -4.851562 16.453125 -3.75 19.453125 -3.75 C 21.460938 -3.75 23.40625 -4.1875 25.28125 -5.0625 C 27.15625 -5.945312 28.816406 -7.203125 30.265625 -8.828125 C 31.722656 -10.453125 32.828125 -12.34375 33.578125 -14.5 L 33.578125 -39.140625 L 38.6875 -39.140625 L 38.6875 -6.15625 C 38.6875 -5.457031 38.835938 -4.941406 39.140625 -4.609375 C 39.441406 -4.285156 39.894531 -4.101562 40.5 -4.0625 L 40.5 0 C 39.894531 0.0507812 39.414062 0.0859375 39.0625 0.109375 C 38.71875 0.140625 38.394531 0.15625 38.09375 0.15625 C 37.082031 0.0507812 36.210938 -0.347656 35.484375 -1.046875 C 34.765625 -1.753906 34.378906 -2.609375 34.328125 -3.609375 L 34.1875 -8.859375 C 32.476562 -5.859375 30.160156 -3.503906 27.234375 -1.796875 C 24.304688 -0.0976562 21.140625 0.75 17.734375 0.75 C 13.617188 0.75 10.507812 -0.675781 8.40625 -3.53125 C 6.3125 -6.382812 5.265625 -10.59375 5.265625 -16.15625 Z M 5.265625 -16.15625 "/></g></g></g><g fill="#333333" fill-opacity="1"><g transform="translate(321.772238, 71.465414)"><g><path d="M 24.796875 0.75 C 21.734375 0.75 18.898438 -0.0351562 16.296875 -1.609375 C 13.691406 -3.191406 11.664062 -5.1875 10.21875 -7.59375 L 10.21875 0 L 5.640625 0 L 5.640625 -54.84375 L 10.75 -54.84375 L 10.75 -30.953125 C 12.5 -33.609375 14.597656 -35.75 17.046875 -37.375 C 19.503906 -39 22.363281 -39.8125 25.625 -39.8125 C 28.375 -39.8125 30.835938 -39.234375 33.015625 -38.078125 C 35.191406 -36.929688 37.054688 -35.394531 38.609375 -33.46875 C 40.160156 -31.539062 41.335938 -29.359375 42.140625 -26.921875 C 42.941406 -24.492188 43.34375 -22.003906 43.34375 -19.453125 C 43.34375 -16.703125 42.878906 -14.125 41.953125 -11.71875 C 41.023438 -9.3125 39.707031 -7.171875 38 -5.296875 C 36.300781 -3.421875 34.335938 -1.941406 32.109375 -0.859375 C 29.878906 0.210938 27.441406 0.75 24.796875 0.75 Z M 23.59375 -3.75 C 25.695312 -3.75 27.648438 -4.175781 29.453125 -5.03125 C 31.253906 -5.882812 32.804688 -7.0625 34.109375 -8.5625 C 35.410156 -10.0625 36.410156 -11.75 37.109375 -13.625 C 37.804688 -15.507812 38.15625 -17.453125 38.15625 -19.453125 C 38.15625 -22.210938 37.566406 -24.804688 36.390625 -27.234375 C 35.210938 -29.660156 33.582031 -31.613281 31.5 -33.09375 C 29.425781 -34.570312 26.988281 -35.3125 24.1875 -35.3125 C 22.1875 -35.3125 20.320312 -34.859375 18.59375 -33.953125 C 16.863281 -33.054688 15.332031 -31.867188 14 -30.390625 C 12.675781 -28.910156 11.59375 -27.296875 10.75 -25.546875 L 10.75 -13.375 C 10.945312 -12.019531 11.46875 -10.753906 12.3125 -9.578125 C 13.164062 -8.398438 14.226562 -7.382812 15.5 -6.53125 C 16.78125 -5.6875 18.125 -5.007812 19.53125 -4.5 C 20.9375 -4 22.289062 -3.75 23.59375 -3.75 Z M 23.59375 -3.75 "/></g></g></g></g></g><path fill="#046307" d="M 126.203125 91.207031 C 126.644531 104.003906 137.378906 114.019531 150.171875 113.574219 C 154.367188 113.429688 158.261719 112.179688 161.585938 110.113281 C 159.488281 105.746094 154.953125 102.804688 149.804688 102.984375 C 142.859375 103.222656 137.035156 97.785156 136.792969 90.839844 C 136.554688 83.894531 141.988281 78.070312 148.933594 77.828125 C 154.082031 77.648438 158.402344 74.402344 160.195312 69.902344 C 156.734375 68.070312 152.761719 67.089844 148.566406 67.238281 C 135.773438 67.679688 125.757812 78.414062 126.203125 91.207031 Z M 146.972656 82.730469 C 151.25 82.585938 154.839844 85.933594 154.988281 90.210938 C 155.136719 94.488281 151.785156 98.078125 147.507812 98.226562 C 143.230469 98.375 139.640625 95.027344 139.492188 90.746094 C 139.34375 86.46875 142.695312 82.878906 146.972656 82.730469 Z M 146.972656 82.730469 " fill-opacity="1" fill-rule="evenodd"/><path fill="#d96c3c" d="M 157.011719 156.035156 C 169.316406 159.566406 182.160156 152.449219 185.691406 140.144531 C 186.847656 136.113281 186.863281 132.019531 185.925781 128.21875 C 181.125 128.867188 176.925781 132.269531 175.503906 137.222656 C 173.585938 143.902344 166.617188 147.765625 159.9375 145.847656 C 153.257812 143.929688 149.394531 136.957031 151.3125 130.277344 C 152.734375 125.328125 150.976562 120.214844 147.253906 117.121094 C 144.441406 119.847656 142.28125 123.320312 141.125 127.355469 C 137.59375 139.660156 144.707031 152.503906 157.011719 156.035156 Z M 155.371094 133.660156 C 156.550781 129.546875 160.84375 127.167969 164.960938 128.347656 C 169.074219 129.53125 171.453125 133.824219 170.269531 137.9375 C 169.089844 142.050781 164.796875 144.429688 160.683594 143.25 C 156.566406 142.070312 154.1875 137.773438 155.371094 133.660156 Z M 155.371094 133.660156 " fill-opacity="1" fill-rule="evenodd"/><path fill="#ffb6c1" d="M 228.1875 146.761719 C 235.347656 136.148438 232.550781 121.738281 221.9375 114.574219 C 218.460938 112.230469 214.574219 110.953125 210.667969 110.667969 C 209.800781 115.433594 211.738281 120.480469 216.007812 123.359375 C 221.769531 127.246094 223.289062 135.070312 219.402344 140.832031 C 215.515625 146.59375 207.691406 148.113281 201.929688 144.222656 C 197.660156 141.34375 192.253906 141.433594 188.164062 144.019531 C 189.886719 147.535156 192.523438 150.660156 196.003906 153.007812 C 206.613281 160.167969 221.027344 157.371094 228.1875 146.761719 Z M 206.402344 141.410156 C 202.851562 139.015625 201.917969 134.195312 204.3125 130.648438 C 206.707031 127.101562 211.523438 126.164062 215.074219 128.558594 C 218.621094 130.953125 219.558594 135.773438 217.164062 139.320312 C 214.769531 142.867188 209.949219 143.804688 206.402344 141.410156 Z M 206.402344 141.410156 " fill-opacity="1" fill-rule="evenodd"/><path fill="#10588c" d="M 241.359375 76.203125 C 233.476562 66.113281 218.90625 64.324219 208.816406 72.203125 C 205.511719 74.785156 203.09375 78.085938 201.621094 81.714844 C 205.882812 84.011719 211.28125 83.726562 215.339844 80.554688 C 220.816406 76.277344 228.726562 77.25 233.003906 82.726562 C 237.285156 88.203125 236.308594 96.113281 230.835938 100.390625 C 226.773438 103.5625 225.1875 108.730469 226.386719 113.421875 C 230.261719 112.871094 234.050781 111.328125 237.359375 108.746094 C 247.445312 100.863281 249.238281 86.292969 241.359375 76.203125 Z M 229.539062 95.269531 C 226.164062 97.90625 221.292969 97.304688 218.65625 93.933594 C 216.023438 90.558594 216.621094 85.6875 219.996094 83.050781 C 223.367188 80.417969 228.242188 81.015625 230.875 84.390625 C 233.511719 87.761719 232.910156 92.636719 229.539062 95.269531 Z M 229.539062 95.269531 " fill-opacity="1" fill-rule="evenodd"/><path fill="#50c4b7" d="M 178.324219 41.875 C 166.292969 46.253906 160.085938 59.558594 164.464844 71.589844 C 165.898438 75.53125 168.292969 78.847656 171.285156 81.375 C 174.789062 78.027344 176.183594 72.804688 174.421875 67.964844 C 172.046875 61.433594 175.414062 54.210938 181.945312 51.835938 C 188.476562 49.460938 195.699219 52.828125 198.074219 59.359375 C 199.835938 64.199219 204.261719 67.304688 209.09375 67.617188 C 209.765625 63.757812 209.46875 59.679688 208.035156 55.734375 C 203.660156 43.707031 190.351562 37.5 178.324219 41.875 Z M 192.804688 59.007812 C 194.269531 63.03125 192.195312 67.480469 188.171875 68.945312 C 184.148438 70.40625 179.699219 68.332031 178.234375 64.308594 C 176.773438 60.289062 178.847656 55.839844 182.871094 54.375 C 186.894531 52.910156 191.34375 54.988281 192.804688 59.007812 Z M 192.804688 59.007812 " fill-opacity="1" fill-rule="evenodd"/><g fill="#333333" fill-opacity="1"><g transform="translate(18.694339, 272.455645)"><g><path d="M 8.015625 -3.046875 C 8.015625 -2.367188 7.84375 -1.789062 7.5 -1.3125 C 7.164062 -0.832031 6.695312 -0.46875 6.09375 -0.21875 C 5.488281 0.03125 4.78125 0.15625 3.96875 0.15625 C 3.53125 0.15625 3.117188 0.132812 2.734375 0.09375 C 2.347656 0.0507812 1.992188 -0.00390625 1.671875 -0.078125 C 1.347656 -0.160156 1.066406 -0.257812 0.828125 -0.375 L 0.828125 -1.65625 C 1.210938 -1.488281 1.6875 -1.335938 2.25 -1.203125 C 2.8125 -1.066406 3.398438 -1 4.015625 -1 C 4.585938 -1 5.070312 -1.070312 5.46875 -1.21875 C 5.863281 -1.375 6.164062 -1.597656 6.375 -1.890625 C 6.582031 -2.179688 6.6875 -2.53125 6.6875 -2.9375 C 6.6875 -3.320312 6.597656 -3.644531 6.421875 -3.90625 C 6.253906 -4.175781 5.96875 -4.414062 5.5625 -4.625 C 5.164062 -4.84375 4.625 -5.078125 3.9375 -5.328125 C 3.457031 -5.492188 3.03125 -5.679688 2.65625 -5.890625 C 2.289062 -6.097656 1.984375 -6.332031 1.734375 -6.59375 C 1.484375 -6.851562 1.289062 -7.15625 1.15625 -7.5 C 1.03125 -7.84375 0.96875 -8.234375 0.96875 -8.671875 C 0.96875 -9.285156 1.125 -9.804688 1.4375 -10.234375 C 1.75 -10.671875 2.175781 -11.003906 2.71875 -11.234375 C 3.269531 -11.472656 3.90625 -11.59375 4.625 -11.59375 C 5.226562 -11.59375 5.789062 -11.535156 6.3125 -11.421875 C 6.832031 -11.304688 7.304688 -11.148438 7.734375 -10.953125 L 7.328125 -9.8125 C 6.910156 -9.988281 6.472656 -10.132812 6.015625 -10.25 C 5.554688 -10.363281 5.082031 -10.421875 4.59375 -10.421875 C 4.101562 -10.421875 3.6875 -10.347656 3.34375 -10.203125 C 3.007812 -10.054688 2.753906 -9.851562 2.578125 -9.59375 C 2.398438 -9.332031 2.3125 -9.023438 2.3125 -8.671875 C 2.3125 -8.265625 2.394531 -7.925781 2.5625 -7.65625 C 2.738281 -7.394531 3.007812 -7.160156 3.375 -6.953125 C 3.75 -6.753906 4.242188 -6.539062 4.859375 -6.3125 C 5.535156 -6.070312 6.109375 -5.8125 6.578125 -5.53125 C 7.046875 -5.257812 7.398438 -4.925781 7.640625 -4.53125 C 7.890625 -4.144531 8.015625 -3.648438 8.015625 -3.046875 Z M 8.015625 -3.046875 "/></g></g></g><g fill="#333333" fill-opacity="1"><g transform="translate(27.46564, 272.455645)"><g><path d="M 2.671875 -8.5625 L 2.671875 0 L 1.375 0 L 1.375 -8.5625 Z M 2.03125 -11.765625 C 2.25 -11.765625 2.429688 -11.695312 2.578125 -11.5625 C 2.734375 -11.425781 2.8125 -11.210938 2.8125 -10.921875 C 2.8125 -10.628906 2.734375 -10.410156 2.578125 -10.265625 C 2.429688 -10.128906 2.25 -10.0625 2.03125 -10.0625 C 1.8125 -10.0625 1.625 -10.128906 1.46875 -10.265625 C 1.320312 -10.410156 1.25 -10.628906 1.25 -10.921875 C 1.25 -11.210938 1.320312 -11.425781 1.46875 -11.5625 C 1.625 -11.695312 1.8125 -11.765625 2.03125 -11.765625 Z M 2.03125 -11.765625 "/></g></g></g><g fill="#333333" fill-opacity="1"><g transform="translate(31.503722, 272.455645)"><g><path d="M 10.671875 -8.71875 C 11.609375 -8.71875 12.316406 -8.472656 12.796875 -7.984375 C 13.273438 -7.492188 13.515625 -6.703125 13.515625 -5.609375 L 13.515625 0 L 12.234375 0 L 12.234375 -5.546875 C 12.234375 -6.242188 12.082031 -6.765625 11.78125 -7.109375 C 11.488281 -7.453125 11.046875 -7.625 10.453125 -7.625 C 9.628906 -7.625 9.03125 -7.382812 8.65625 -6.90625 C 8.28125 -6.425781 8.09375 -5.722656 8.09375 -4.796875 L 8.09375 0 L 6.796875 0 L 6.796875 -5.546875 C 6.796875 -6.015625 6.726562 -6.398438 6.59375 -6.703125 C 6.46875 -7.015625 6.269531 -7.242188 6 -7.390625 C 5.738281 -7.546875 5.410156 -7.625 5.015625 -7.625 C 4.441406 -7.625 3.984375 -7.503906 3.640625 -7.265625 C 3.296875 -7.035156 3.046875 -6.691406 2.890625 -6.234375 C 2.742188 -5.773438 2.671875 -5.207031 2.671875 -4.53125 L 2.671875 0 L 1.375 0 L 1.375 -8.5625 L 2.421875 -8.5625 L 2.609375 -7.359375 L 2.6875 -7.359375 C 2.851562 -7.648438 3.066406 -7.894531 3.328125 -8.09375 C 3.585938 -8.300781 3.878906 -8.457031 4.203125 -8.5625 C 4.523438 -8.664062 4.867188 -8.71875 5.234375 -8.71875 C 5.890625 -8.71875 6.4375 -8.597656 6.875 -8.359375 C 7.3125 -8.117188 7.628906 -7.75 7.828125 -7.25 L 7.90625 -7.25 C 8.1875 -7.75 8.570312 -8.117188 9.0625 -8.359375 C 9.550781 -8.597656 10.085938 -8.71875 10.671875 -8.71875 Z M 10.671875 -8.71875 "/></g></g></g><g fill="#333333" fill-opacity="1"><g transform="translate(46.312604, 272.455645)"><g><path d="M 5.390625 -8.71875 C 6.460938 -8.71875 7.316406 -8.347656 7.953125 -7.609375 C 8.585938 -6.878906 8.90625 -5.78125 8.90625 -4.3125 C 8.90625 -3.332031 8.757812 -2.507812 8.46875 -1.84375 C 8.175781 -1.1875 7.765625 -0.6875 7.234375 -0.34375 C 6.703125 -0.0078125 6.078125 0.15625 5.359375 0.15625 C 4.910156 0.15625 4.515625 0.0976562 4.171875 -0.015625 C 3.828125 -0.140625 3.53125 -0.300781 3.28125 -0.5 C 3.039062 -0.707031 2.835938 -0.929688 2.671875 -1.171875 L 2.578125 -1.171875 C 2.597656 -0.972656 2.617188 -0.726562 2.640625 -0.4375 C 2.660156 -0.15625 2.671875 0.09375 2.671875 0.3125 L 2.671875 3.828125 L 1.375 3.828125 L 1.375 -8.5625 L 2.4375 -8.5625 L 2.609375 -7.296875 L 2.671875 -7.296875 C 2.835938 -7.554688 3.039062 -7.796875 3.28125 -8.015625 C 3.519531 -8.234375 3.8125 -8.40625 4.15625 -8.53125 C 4.507812 -8.65625 4.921875 -8.71875 5.390625 -8.71875 Z M 5.171875 -7.625 C 4.578125 -7.625 4.097656 -7.507812 3.734375 -7.28125 C 3.367188 -7.050781 3.101562 -6.707031 2.9375 -6.25 C 2.769531 -5.800781 2.679688 -5.234375 2.671875 -4.546875 L 2.671875 -4.296875 C 2.671875 -3.566406 2.75 -2.953125 2.90625 -2.453125 C 3.070312 -1.953125 3.335938 -1.570312 3.703125 -1.3125 C 4.066406 -1.050781 4.5625 -0.921875 5.1875 -0.921875 C 5.71875 -0.921875 6.160156 -1.0625 6.515625 -1.34375 C 6.867188 -1.632812 7.128906 -2.035156 7.296875 -2.546875 C 7.472656 -3.066406 7.5625 -3.660156 7.5625 -4.328125 C 7.5625 -5.335938 7.363281 -6.140625 6.96875 -6.734375 C 6.582031 -7.328125 5.984375 -7.625 5.171875 -7.625 Z M 5.171875 -7.625 "/></g></g></g><g fill="#333333" fill-opacity="1"><g transform="translate(56.099282, 272.455645)"><g><path d="M 2.671875 0 L 1.375 0 L 1.375 -12.15625 L 2.671875 -12.15625 Z M 2.671875 0 "/></g></g></g><g fill="#333333" fill-opacity="1"><g transform="translate(60.137364, 272.455645)"><g><path d="M 2.671875 -8.5625 L 2.671875 0 L 1.375 0 L 1.375 -8.5625 Z M 2.03125 -11.765625 C 2.25 -11.765625 2.429688 -11.695312 2.578125 -11.5625 C 2.734375 -11.425781 2.8125 -11.210938 2.8125 -10.921875 C 2.8125 -10.628906 2.734375 -10.410156 2.578125 -10.265625 C 2.429688 -10.128906 2.25 -10.0625 2.03125 -10.0625 C 1.8125 -10.0625 1.625 -10.128906 1.46875 -10.265625 C 1.320312 -10.410156 1.25 -10.628906 1.25 -10.921875 C 1.25 -11.210938 1.320312 -11.425781 1.46875 -11.5625 C 1.625 -11.695312 1.8125 -11.765625 2.03125 -11.765625 Z M 2.03125 -11.765625 "/></g></g></g><g fill="#333333" fill-opacity="1"><g transform="translate(64.175446, 272.455645)"><g><path d="M 5.1875 -7.546875 L 3.046875 -7.546875 L 3.046875 0 L 1.75 0 L 1.75 -7.546875 L 0.234375 -7.546875 L 0.234375 -8.171875 L 1.75 -8.609375 L 1.75 -9.171875 C 1.75 -9.890625 1.851562 -10.472656 2.0625 -10.921875 C 2.28125 -11.378906 2.59375 -11.710938 3 -11.921875 C 3.40625 -12.140625 3.898438 -12.25 4.484375 -12.25 C 4.816406 -12.25 5.117188 -12.21875 5.390625 -12.15625 C 5.660156 -12.101562 5.898438 -12.039062 6.109375 -11.96875 L 5.78125 -10.9375 C 5.601562 -11 5.398438 -11.050781 5.171875 -11.09375 C 4.953125 -11.144531 4.726562 -11.171875 4.5 -11.171875 C 4.007812 -11.171875 3.644531 -11.007812 3.40625 -10.6875 C 3.164062 -10.375 3.046875 -9.875 3.046875 -9.1875 L 3.046875 -8.5625 L 5.1875 -8.5625 Z M 5.1875 -7.546875 "/></g></g></g><g fill="#333333" fill-opacity="1"><g transform="translate(69.556949, 272.455645)"><g><path d="M 0.015625 -8.5625 L 1.40625 -8.5625 L 3.296875 -3.59375 C 3.410156 -3.300781 3.515625 -3.019531 3.609375 -2.75 C 3.703125 -2.488281 3.785156 -2.234375 3.859375 -1.984375 C 3.929688 -1.742188 3.988281 -1.507812 4.03125 -1.28125 L 4.078125 -1.28125 C 4.148438 -1.539062 4.253906 -1.878906 4.390625 -2.296875 C 4.523438 -2.722656 4.671875 -3.160156 4.828125 -3.609375 L 6.625 -8.5625 L 8.015625 -8.5625 L 4.296875 1.265625 C 4.097656 1.785156 3.863281 2.238281 3.59375 2.625 C 3.332031 3.019531 3.015625 3.320312 2.640625 3.53125 C 2.265625 3.75 1.8125 3.859375 1.28125 3.859375 C 1.039062 3.859375 0.828125 3.84375 0.640625 3.8125 C 0.453125 3.78125 0.289062 3.75 0.15625 3.71875 L 0.15625 2.671875 C 0.269531 2.703125 0.40625 2.726562 0.5625 2.75 C 0.726562 2.769531 0.898438 2.78125 1.078125 2.78125 C 1.398438 2.78125 1.679688 2.71875 1.921875 2.59375 C 2.160156 2.46875 2.363281 2.285156 2.53125 2.046875 C 2.707031 1.816406 2.859375 1.539062 2.984375 1.21875 L 3.453125 0.015625 Z M 0.015625 -8.5625 "/></g></g></g><g fill="#333333" fill-opacity="1"><g transform="translate(77.570617, 272.455645)"><g><path d="M 2.671875 -8.5625 L 2.671875 0 L 1.375 0 L 1.375 -8.5625 Z M 2.03125 -11.765625 C 2.25 -11.765625 2.429688 -11.695312 2.578125 -11.5625 C 2.734375 -11.425781 2.8125 -11.210938 2.8125 -10.921875 C 2.8125 -10.628906 2.734375 -10.410156 2.578125 -10.265625 C 2.429688 -10.128906 2.25 -10.0625 2.03125 -10.0625 C 1.8125 -10.0625 1.625 -10.128906 1.46875 -10.265625 C 1.320312 -10.410156 1.25 -10.628906 1.25 -10.921875 C 1.25 -11.210938 1.320312 -11.425781 1.46875 -11.5625 C 1.625 -11.695312 1.8125 -11.765625 2.03125 -11.765625 Z M 2.03125 -11.765625 "/></g></g></g><g fill="#333333" fill-opacity="1"><g transform="translate(81.608699, 272.455645)"><g><path d="M 5.421875 -8.71875 C 6.441406 -8.71875 7.210938 -8.46875 7.734375 -7.96875 C 8.253906 -7.476562 8.515625 -6.679688 8.515625 -5.578125 L 8.515625 0 L 7.234375 0 L 7.234375 -5.5 C 7.234375 -6.207031 7.066406 -6.738281 6.734375 -7.09375 C 6.410156 -7.445312 5.914062 -7.625 5.25 -7.625 C 4.300781 -7.625 3.632812 -7.351562 3.25 -6.8125 C 2.863281 -6.28125 2.671875 -5.503906 2.671875 -4.484375 L 2.671875 0 L 1.375 0 L 1.375 -8.5625 L 2.421875 -8.5625 L 2.609375 -7.328125 L 2.6875 -7.328125 C 2.863281 -7.628906 3.09375 -7.882812 3.375 -8.09375 C 3.65625 -8.300781 3.96875 -8.457031 4.3125 -8.5625 C 4.664062 -8.664062 5.035156 -8.71875 5.421875 -8.71875 Z M 5.421875 -8.71875 "/></g></g></g><g fill="#333333" fill-opacity="1"><g transform="translate(91.418802, 272.455645)"><g><path d="M 3.765625 3.84375 C 2.640625 3.84375 1.769531 3.632812 1.15625 3.21875 C 0.550781 2.800781 0.25 2.210938 0.25 1.453125 C 0.25 0.921875 0.414062 0.460938 0.75 0.078125 C 1.09375 -0.304688 1.566406 -0.5625 2.171875 -0.6875 C 1.953125 -0.789062 1.757812 -0.945312 1.59375 -1.15625 C 1.4375 -1.363281 1.359375 -1.601562 1.359375 -1.875 C 1.359375 -2.1875 1.445312 -2.457031 1.625 -2.6875 C 1.800781 -2.925781 2.066406 -3.15625 2.421875 -3.375 C 1.972656 -3.5625 1.609375 -3.867188 1.328125 -4.296875 C 1.054688 -4.734375 0.921875 -5.242188 0.921875 -5.828125 C 0.921875 -6.441406 1.046875 -6.960938 1.296875 -7.390625 C 1.554688 -7.828125 1.925781 -8.160156 2.40625 -8.390625 C 2.894531 -8.617188 3.484375 -8.734375 4.171875 -8.734375 C 4.316406 -8.734375 4.46875 -8.726562 4.625 -8.71875 C 4.78125 -8.707031 4.925781 -8.6875 5.0625 -8.65625 C 5.207031 -8.632812 5.332031 -8.609375 5.4375 -8.578125 L 8.375 -8.578125 L 8.375 -7.75 L 6.796875 -7.546875 C 6.953125 -7.347656 7.082031 -7.101562 7.1875 -6.8125 C 7.289062 -6.53125 7.34375 -6.210938 7.34375 -5.859375 C 7.34375 -5.003906 7.050781 -4.328125 6.46875 -3.828125 C 5.894531 -3.328125 5.101562 -3.078125 4.09375 -3.078125 C 3.851562 -3.078125 3.609375 -3.097656 3.359375 -3.140625 C 3.097656 -2.992188 2.898438 -2.832031 2.765625 -2.65625 C 2.640625 -2.488281 2.578125 -2.296875 2.578125 -2.078125 C 2.578125 -1.910156 2.625 -1.773438 2.71875 -1.671875 C 2.820312 -1.578125 2.96875 -1.503906 3.15625 -1.453125 C 3.351562 -1.410156 3.585938 -1.390625 3.859375 -1.390625 L 5.375 -1.390625 C 6.300781 -1.390625 7.015625 -1.191406 7.515625 -0.796875 C 8.015625 -0.410156 8.265625 0.15625 8.265625 0.90625 C 8.265625 1.851562 7.878906 2.578125 7.109375 3.078125 C 6.335938 3.585938 5.222656 3.84375 3.765625 3.84375 Z M 3.796875 2.828125 C 4.503906 2.828125 5.09375 2.753906 5.5625 2.609375 C 6.03125 2.472656 6.378906 2.269531 6.609375 2 C 6.835938 1.726562 6.953125 1.410156 6.953125 1.046875 C 6.953125 0.703125 6.875 0.441406 6.71875 0.265625 C 6.5625 0.0859375 6.332031 -0.03125 6.03125 -0.09375 C 5.726562 -0.15625 5.359375 -0.1875 4.921875 -0.1875 L 3.4375 -0.1875 C 3.050781 -0.1875 2.710938 -0.125 2.421875 0 C 2.140625 0.125 1.921875 0.300781 1.765625 0.53125 C 1.617188 0.769531 1.546875 1.0625 1.546875 1.40625 C 1.546875 1.875 1.738281 2.226562 2.125 2.46875 C 2.519531 2.707031 3.078125 2.828125 3.796875 2.828125 Z M 4.140625 -4.015625 C 4.753906 -4.015625 5.21875 -4.171875 5.53125 -4.484375 C 5.84375 -4.796875 6 -5.253906 6 -5.859375 C 6 -6.492188 5.835938 -6.972656 5.515625 -7.296875 C 5.203125 -7.617188 4.738281 -7.78125 4.125 -7.78125 C 3.53125 -7.78125 3.070312 -7.613281 2.75 -7.28125 C 2.425781 -6.945312 2.265625 -6.460938 2.265625 -5.828125 C 2.265625 -5.242188 2.425781 -4.796875 2.75 -4.484375 C 3.070312 -4.171875 3.535156 -4.015625 4.140625 -4.015625 Z M 4.140625 -4.015625 "/></g></g></g><g fill="#333333" fill-opacity="1"><g transform="translate(100.104181, 272.455645)"><g/></g></g><g fill="#333333" fill-opacity="1"><g transform="translate(104.259416, 272.455645)"><g><path d="M 2.890625 0 L 1.5625 0 L 1.5625 -11.421875 L 7.921875 -11.421875 L 7.921875 -10.25 L 2.890625 -10.25 L 2.890625 -6.0625 L 7.625 -6.0625 L 7.625 -4.90625 L 2.890625 -4.90625 Z M 2.890625 0 "/></g></g></g><g fill="#333333" fill-opacity="1"><g transform="translate(112.515218, 272.455645)"><g><path d="M 8.75 -4.296875 C 8.75 -3.597656 8.65625 -2.972656 8.46875 -2.421875 C 8.289062 -1.867188 8.03125 -1.398438 7.6875 -1.015625 C 7.34375 -0.640625 6.925781 -0.347656 6.4375 -0.140625 C 5.957031 0.0546875 5.410156 0.15625 4.796875 0.15625 C 4.222656 0.15625 3.695312 0.0546875 3.21875 -0.140625 C 2.738281 -0.347656 2.328125 -0.640625 1.984375 -1.015625 C 1.640625 -1.398438 1.367188 -1.867188 1.171875 -2.421875 C 0.984375 -2.972656 0.890625 -3.597656 0.890625 -4.296875 C 0.890625 -5.234375 1.046875 -6.03125 1.359375 -6.6875 C 1.679688 -7.351562 2.140625 -7.859375 2.734375 -8.203125 C 3.328125 -8.546875 4.03125 -8.71875 4.84375 -8.71875 C 5.625 -8.71875 6.304688 -8.539062 6.890625 -8.1875 C 7.484375 -7.84375 7.941406 -7.34375 8.265625 -6.6875 C 8.585938 -6.03125 8.75 -5.234375 8.75 -4.296875 Z M 2.234375 -4.296875 C 2.234375 -3.609375 2.320312 -3.007812 2.5 -2.5 C 2.6875 -2 2.96875 -1.609375 3.34375 -1.328125 C 3.726562 -1.054688 4.222656 -0.921875 4.828125 -0.921875 C 5.421875 -0.921875 5.90625 -1.054688 6.28125 -1.328125 C 6.664062 -1.609375 6.945312 -2 7.125 -2.5 C 7.3125 -3.007812 7.40625 -3.609375 7.40625 -4.296875 C 7.40625 -4.984375 7.3125 -5.570312 7.125 -6.0625 C 6.945312 -6.5625 6.664062 -6.945312 6.28125 -7.21875 C 5.90625 -7.488281 5.414062 -7.625 4.8125 -7.625 C 3.925781 -7.625 3.273438 -7.328125 2.859375 -6.734375 C 2.441406 -6.148438 2.234375 -5.335938 2.234375 -4.296875 Z M 2.234375 -4.296875 "/></g></g></g><g fill="#333333" fill-opacity="1"><g transform="translate(122.137867, 272.455645)"><g><path d="M 6.90625 -2.34375 C 6.90625 -1.800781 6.769531 -1.34375 6.5 -0.96875 C 6.226562 -0.59375 5.835938 -0.3125 5.328125 -0.125 C 4.816406 0.0625 4.210938 0.15625 3.515625 0.15625 C 2.910156 0.15625 2.390625 0.109375 1.953125 0.015625 C 1.515625 -0.078125 1.132812 -0.210938 0.8125 -0.390625 L 0.8125 -1.578125 C 1.15625 -1.410156 1.566406 -1.253906 2.046875 -1.109375 C 2.535156 -0.972656 3.035156 -0.90625 3.546875 -0.90625 C 4.285156 -0.90625 4.820312 -1.023438 5.15625 -1.265625 C 5.488281 -1.503906 5.65625 -1.828125 5.65625 -2.234375 C 5.65625 -2.472656 5.585938 -2.679688 5.453125 -2.859375 C 5.316406 -3.035156 5.09375 -3.207031 4.78125 -3.375 C 4.46875 -3.550781 4.035156 -3.738281 3.484375 -3.9375 C 2.941406 -4.144531 2.46875 -4.351562 2.0625 -4.5625 C 1.664062 -4.769531 1.359375 -5.019531 1.140625 -5.3125 C 0.929688 -5.613281 0.828125 -6 0.828125 -6.46875 C 0.828125 -7.195312 1.117188 -7.753906 1.703125 -8.140625 C 2.285156 -8.523438 3.054688 -8.71875 4.015625 -8.71875 C 4.523438 -8.71875 5.003906 -8.664062 5.453125 -8.5625 C 5.910156 -8.46875 6.332031 -8.332031 6.71875 -8.15625 L 6.28125 -7.125 C 5.925781 -7.269531 5.546875 -7.394531 5.140625 -7.5 C 4.742188 -7.601562 4.335938 -7.65625 3.921875 -7.65625 C 3.328125 -7.65625 2.867188 -7.554688 2.546875 -7.359375 C 2.222656 -7.160156 2.0625 -6.890625 2.0625 -6.546875 C 2.0625 -6.285156 2.132812 -6.066406 2.28125 -5.890625 C 2.4375 -5.722656 2.675781 -5.5625 3 -5.40625 C 3.332031 -5.257812 3.765625 -5.082031 4.296875 -4.875 C 4.835938 -4.675781 5.300781 -4.472656 5.6875 -4.265625 C 6.082031 -4.054688 6.382812 -3.800781 6.59375 -3.5 C 6.800781 -3.195312 6.90625 -2.8125 6.90625 -2.34375 Z M 6.90625 -2.34375 "/></g></g></g><g fill="#333333" fill-opacity="1"><g transform="translate(129.761005, 272.455645)"><g><path d="M 4.140625 -0.90625 C 4.347656 -0.90625 4.5625 -0.921875 4.78125 -0.953125 C 5.007812 -0.992188 5.195312 -1.039062 5.34375 -1.09375 L 5.34375 -0.09375 C 5.1875 -0.0195312 4.972656 0.0351562 4.703125 0.078125 C 4.441406 0.128906 4.179688 0.15625 3.921875 0.15625 C 3.472656 0.15625 3.0625 0.078125 2.6875 -0.078125 C 2.320312 -0.242188 2.023438 -0.515625 1.796875 -0.890625 C 1.578125 -1.273438 1.46875 -1.800781 1.46875 -2.46875 L 1.46875 -7.546875 L 0.25 -7.546875 L 0.25 -8.1875 L 1.484375 -8.6875 L 2 -10.546875 L 2.78125 -10.546875 L 2.78125 -8.5625 L 5.28125 -8.5625 L 5.28125 -7.546875 L 2.78125 -7.546875 L 2.78125 -2.515625 C 2.78125 -1.972656 2.898438 -1.566406 3.140625 -1.296875 C 3.390625 -1.035156 3.722656 -0.90625 4.140625 -0.90625 Z M 4.140625 -0.90625 "/></g></g></g><g fill="#333333" fill-opacity="1"><g transform="translate(135.462737, 272.455645)"><g><path d="M 4.671875 -8.71875 C 5.398438 -8.71875 6.023438 -8.554688 6.546875 -8.234375 C 7.066406 -7.910156 7.460938 -7.457031 7.734375 -6.875 C 8.015625 -6.300781 8.15625 -5.625 8.15625 -4.84375 L 8.15625 -4.046875 L 2.234375 -4.046875 C 2.253906 -3.035156 2.503906 -2.265625 2.984375 -1.734375 C 3.472656 -1.210938 4.15625 -0.953125 5.03125 -0.953125 C 5.570312 -0.953125 6.050781 -1 6.46875 -1.09375 C 6.882812 -1.195312 7.316406 -1.347656 7.765625 -1.546875 L 7.765625 -0.40625 C 7.335938 -0.207031 6.910156 -0.0664062 6.484375 0.015625 C 6.054688 0.109375 5.554688 0.15625 4.984375 0.15625 C 4.160156 0.15625 3.441406 -0.0078125 2.828125 -0.34375 C 2.210938 -0.6875 1.734375 -1.179688 1.390625 -1.828125 C 1.054688 -2.484375 0.890625 -3.28125 0.890625 -4.21875 C 0.890625 -5.144531 1.046875 -5.941406 1.359375 -6.609375 C 1.671875 -7.285156 2.109375 -7.804688 2.671875 -8.171875 C 3.234375 -8.535156 3.898438 -8.71875 4.671875 -8.71875 Z M 4.65625 -7.65625 C 3.957031 -7.65625 3.398438 -7.425781 2.984375 -6.96875 C 2.578125 -6.519531 2.335938 -5.890625 2.265625 -5.078125 L 6.796875 -5.078125 C 6.785156 -5.585938 6.703125 -6.035156 6.546875 -6.421875 C 6.398438 -6.816406 6.171875 -7.117188 5.859375 -7.328125 C 5.546875 -7.546875 5.144531 -7.65625 4.65625 -7.65625 Z M 4.65625 -7.65625 "/></g></g></g><g fill="#333333" fill-opacity="1"><g transform="translate(144.444918, 272.455645)"><g><path d="M 5.265625 -8.71875 C 5.429688 -8.71875 5.609375 -8.707031 5.796875 -8.6875 C 5.984375 -8.675781 6.148438 -8.65625 6.296875 -8.625 L 6.140625 -7.421875 C 5.992188 -7.453125 5.832031 -7.476562 5.65625 -7.5 C 5.488281 -7.519531 5.332031 -7.53125 5.1875 -7.53125 C 4.84375 -7.53125 4.515625 -7.460938 4.203125 -7.328125 C 3.898438 -7.191406 3.632812 -6.992188 3.40625 -6.734375 C 3.175781 -6.472656 2.992188 -6.160156 2.859375 -5.796875 C 2.734375 -5.441406 2.671875 -5.039062 2.671875 -4.59375 L 2.671875 0 L 1.375 0 L 1.375 -8.5625 L 2.453125 -8.5625 L 2.59375 -6.984375 L 2.640625 -6.984375 C 2.816406 -7.304688 3.03125 -7.597656 3.28125 -7.859375 C 3.53125 -8.117188 3.820312 -8.328125 4.15625 -8.484375 C 4.488281 -8.640625 4.859375 -8.71875 5.265625 -8.71875 Z M 5.265625 -8.71875 "/></g></g></g><g fill="#333333" fill-opacity="1"><g transform="translate(150.98239, 272.455645)"><g/></g></g><g fill="#333333" fill-opacity="1"><g transform="translate(155.137625, 272.455645)"><g><path d="M 6.453125 -10.421875 C 5.816406 -10.421875 5.25 -10.3125 4.75 -10.09375 C 4.25 -9.875 3.820312 -9.5625 3.46875 -9.15625 C 3.113281 -8.75 2.84375 -8.253906 2.65625 -7.671875 C 2.46875 -7.097656 2.375 -6.445312 2.375 -5.71875 C 2.375 -4.757812 2.523438 -3.925781 2.828125 -3.21875 C 3.128906 -2.519531 3.578125 -1.976562 4.171875 -1.59375 C 4.765625 -1.207031 5.507812 -1.015625 6.40625 -1.015625 C 6.914062 -1.015625 7.394531 -1.054688 7.84375 -1.140625 C 8.300781 -1.222656 8.742188 -1.332031 9.171875 -1.46875 L 9.171875 -0.3125 C 8.753906 -0.15625 8.316406 -0.0390625 7.859375 0.03125 C 7.398438 0.113281 6.851562 0.15625 6.21875 0.15625 C 5.0625 0.15625 4.09375 -0.0820312 3.3125 -0.5625 C 2.53125 -1.050781 1.945312 -1.734375 1.5625 -2.609375 C 1.175781 -3.492188 0.984375 -4.535156 0.984375 -5.734375 C 0.984375 -6.597656 1.101562 -7.382812 1.34375 -8.09375 C 1.582031 -8.8125 1.9375 -9.429688 2.40625 -9.953125 C 2.875 -10.472656 3.445312 -10.875 4.125 -11.15625 C 4.800781 -11.445312 5.582031 -11.59375 6.46875 -11.59375 C 7.039062 -11.59375 7.59375 -11.535156 8.125 -11.421875 C 8.664062 -11.304688 9.15625 -11.140625 9.59375 -10.921875 L 9.0625 -9.796875 C 8.695312 -9.960938 8.296875 -10.109375 7.859375 -10.234375 C 7.421875 -10.359375 6.953125 -10.421875 6.453125 -10.421875 Z M 6.453125 -10.421875 "/></g></g></g><g fill="#333333" fill-opacity="1"><g transform="translate(165.213288, 272.455645)"><g><path d="M 4.578125 -8.703125 C 5.597656 -8.703125 6.351562 -8.472656 6.84375 -8.015625 C 7.34375 -7.554688 7.59375 -6.828125 7.59375 -5.828125 L 7.59375 0 L 6.640625 0 L 6.390625 -1.265625 L 6.328125 -1.265625 C 6.085938 -0.953125 5.835938 -0.691406 5.578125 -0.484375 C 5.316406 -0.273438 5.015625 -0.113281 4.671875 0 C 4.335938 0.101562 3.921875 0.15625 3.421875 0.15625 C 2.898438 0.15625 2.4375 0.0664062 2.03125 -0.109375 C 1.632812 -0.296875 1.316406 -0.570312 1.078125 -0.9375 C 0.847656 -1.3125 0.734375 -1.785156 0.734375 -2.359375 C 0.734375 -3.210938 1.070312 -3.867188 1.75 -4.328125 C 2.425781 -4.785156 3.457031 -5.035156 4.84375 -5.078125 L 6.328125 -5.140625 L 6.328125 -5.65625 C 6.328125 -6.394531 6.164062 -6.910156 5.84375 -7.203125 C 5.53125 -7.503906 5.082031 -7.65625 4.5 -7.65625 C 4.050781 -7.65625 3.625 -7.585938 3.21875 -7.453125 C 2.8125 -7.328125 2.425781 -7.175781 2.0625 -7 L 1.671875 -7.984375 C 2.054688 -8.179688 2.5 -8.347656 3 -8.484375 C 3.5 -8.628906 4.023438 -8.703125 4.578125 -8.703125 Z M 6.3125 -4.21875 L 5 -4.171875 C 3.9375 -4.128906 3.1875 -3.953125 2.75 -3.640625 C 2.3125 -3.335938 2.09375 -2.90625 2.09375 -2.34375 C 2.09375 -1.851562 2.238281 -1.488281 2.53125 -1.25 C 2.832031 -1.019531 3.226562 -0.90625 3.71875 -0.90625 C 4.476562 -0.90625 5.097656 -1.113281 5.578125 -1.53125 C 6.066406 -1.957031 6.3125 -2.59375 6.3125 -3.4375 Z M 6.3125 -4.21875 "/></g></g></g><g fill="#333333" fill-opacity="1"><g transform="translate(174.101742, 272.455645)"><g><path d="M 5.265625 -8.71875 C 5.429688 -8.71875 5.609375 -8.707031 5.796875 -8.6875 C 5.984375 -8.675781 6.148438 -8.65625 6.296875 -8.625 L 6.140625 -7.421875 C 5.992188 -7.453125 5.832031 -7.476562 5.65625 -7.5 C 5.488281 -7.519531 5.332031 -7.53125 5.1875 -7.53125 C 4.84375 -7.53125 4.515625 -7.460938 4.203125 -7.328125 C 3.898438 -7.191406 3.632812 -6.992188 3.40625 -6.734375 C 3.175781 -6.472656 2.992188 -6.160156 2.859375 -5.796875 C 2.734375 -5.441406 2.671875 -5.039062 2.671875 -4.59375 L 2.671875 0 L 1.375 0 L 1.375 -8.5625 L 2.453125 -8.5625 L 2.59375 -6.984375 L 2.640625 -6.984375 C 2.816406 -7.304688 3.03125 -7.597656 3.28125 -7.859375 C 3.53125 -8.117188 3.820312 -8.328125 4.15625 -8.484375 C 4.488281 -8.640625 4.859375 -8.71875 5.265625 -8.71875 Z M 5.265625 -8.71875 "/></g></g></g><g fill="#333333" fill-opacity="1"><g transform="translate(180.639214, 272.455645)"><g><path d="M 4.671875 -8.71875 C 5.398438 -8.71875 6.023438 -8.554688 6.546875 -8.234375 C 7.066406 -7.910156 7.460938 -7.457031 7.734375 -6.875 C 8.015625 -6.300781 8.15625 -5.625 8.15625 -4.84375 L 8.15625 -4.046875 L 2.234375 -4.046875 C 2.253906 -3.035156 2.503906 -2.265625 2.984375 -1.734375 C 3.472656 -1.210938 4.15625 -0.953125 5.03125 -0.953125 C 5.570312 -0.953125 6.050781 -1 6.46875 -1.09375 C 6.882812 -1.195312 7.316406 -1.347656 7.765625 -1.546875 L 7.765625 -0.40625 C 7.335938 -0.207031 6.910156 -0.0664062 6.484375 0.015625 C 6.054688 0.109375 5.554688 0.15625 4.984375 0.15625 C 4.160156 0.15625 3.441406 -0.0078125 2.828125 -0.34375 C 2.210938 -0.6875 1.734375 -1.179688 1.390625 -1.828125 C 1.054688 -2.484375 0.890625 -3.28125 0.890625 -4.21875 C 0.890625 -5.144531 1.046875 -5.941406 1.359375 -6.609375 C 1.671875 -7.285156 2.109375 -7.804688 2.671875 -8.171875 C 3.234375 -8.535156 3.898438 -8.71875 4.671875 -8.71875 Z M 4.65625 -7.65625 C 3.957031 -7.65625 3.398438 -7.425781 2.984375 -6.96875 C 2.578125 -6.519531 2.335938 -5.890625 2.265625 -5.078125 L 6.796875 -5.078125 C 6.785156 -5.585938 6.703125 -6.035156 6.546875 -6.421875 C 6.398438 -6.816406 6.171875 -7.117188 5.859375 -7.328125 C 5.546875 -7.546875 5.144531 -7.65625 4.65625 -7.65625 Z M 4.65625 -7.65625 "/></g></g></g><g fill="#333333" fill-opacity="1"><g transform="translate(189.621395, 272.455645)"><g><path d="M 2.859375 -1.859375 L 2.953125 -1.6875 C 2.859375 -1.300781 2.738281 -0.890625 2.59375 -0.453125 C 2.457031 -0.0234375 2.300781 0.40625 2.125 0.84375 C 1.957031 1.28125 1.789062 1.6875 1.625 2.0625 L 0.65625 2.0625 C 0.757812 1.644531 0.863281 1.207031 0.96875 0.75 C 1.070312 0.289062 1.164062 -0.160156 1.25 -0.609375 C 1.34375 -1.066406 1.414062 -1.484375 1.46875 -1.859375 Z M 2.859375 -1.859375 "/></g></g></g><g fill="#333333" fill-opacity="1"><g transform="translate(193.761008, 272.455645)"><g/></g></g><g fill="#333333" fill-opacity="1"><g transform="translate(197.916243, 272.455645)"><g><path d="M 7.921875 0 L 1.5625 0 L 1.5625 -11.421875 L 7.921875 -11.421875 L 7.921875 -10.25 L 2.890625 -10.25 L 2.890625 -6.5625 L 7.640625 -6.5625 L 7.640625 -5.40625 L 2.890625 -5.40625 L 2.890625 -1.171875 L 7.921875 -1.171875 Z M 7.921875 0 "/></g></g></g><g fill="#333333" fill-opacity="1"><g transform="translate(206.804697, 272.455645)"><g><path d="M 10.671875 -8.71875 C 11.609375 -8.71875 12.316406 -8.472656 12.796875 -7.984375 C 13.273438 -7.492188 13.515625 -6.703125 13.515625 -5.609375 L 13.515625 0 L 12.234375 0 L 12.234375 -5.546875 C 12.234375 -6.242188 12.082031 -6.765625 11.78125 -7.109375 C 11.488281 -7.453125 11.046875 -7.625 10.453125 -7.625 C 9.628906 -7.625 9.03125 -7.382812 8.65625 -6.90625 C 8.28125 -6.425781 8.09375 -5.722656 8.09375 -4.796875 L 8.09375 0 L 6.796875 0 L 6.796875 -5.546875 C 6.796875 -6.015625 6.726562 -6.398438 6.59375 -6.703125 C 6.46875 -7.015625 6.269531 -7.242188 6 -7.390625 C 5.738281 -7.546875 5.410156 -7.625 5.015625 -7.625 C 4.441406 -7.625 3.984375 -7.503906 3.640625 -7.265625 C 3.296875 -7.035156 3.046875 -6.691406 2.890625 -6.234375 C 2.742188 -5.773438 2.671875 -5.207031 2.671875 -4.53125 L 2.671875 0 L 1.375 0 L 1.375 -8.5625 L 2.421875 -8.5625 L 2.609375 -7.359375 L 2.6875 -7.359375 C 2.851562 -7.648438 3.066406 -7.894531 3.328125 -8.09375 C 3.585938 -8.300781 3.878906 -8.457031 4.203125 -8.5625 C 4.523438 -8.664062 4.867188 -8.71875 5.234375 -8.71875 C 5.890625 -8.71875 6.4375 -8.597656 6.875 -8.359375 C 7.3125 -8.117188 7.628906 -7.75 7.828125 -7.25 L 7.90625 -7.25 C 8.1875 -7.75 8.570312 -8.117188 9.0625 -8.359375 C 9.550781 -8.597656 10.085938 -8.71875 10.671875 -8.71875 Z M 10.671875 -8.71875 "/></g></g></g><g fill="#333333" fill-opacity="1"><g transform="translate(221.613591, 272.455645)"><g><path d="M 5.390625 -8.71875 C 6.460938 -8.71875 7.316406 -8.347656 7.953125 -7.609375 C 8.585938 -6.878906 8.90625 -5.78125 8.90625 -4.3125 C 8.90625 -3.332031 8.757812 -2.507812 8.46875 -1.84375 C 8.175781 -1.1875 7.765625 -0.6875 7.234375 -0.34375 C 6.703125 -0.0078125 6.078125 0.15625 5.359375 0.15625 C 4.910156 0.15625 4.515625 0.0976562 4.171875 -0.015625 C 3.828125 -0.140625 3.53125 -0.300781 3.28125 -0.5 C 3.039062 -0.707031 2.835938 -0.929688 2.671875 -1.171875 L 2.578125 -1.171875 C 2.597656 -0.972656 2.617188 -0.726562 2.640625 -0.4375 C 2.660156 -0.15625 2.671875 0.09375 2.671875 0.3125 L 2.671875 3.828125 L 1.375 3.828125 L 1.375 -8.5625 L 2.4375 -8.5625 L 2.609375 -7.296875 L 2.671875 -7.296875 C 2.835938 -7.554688 3.039062 -7.796875 3.28125 -8.015625 C 3.519531 -8.234375 3.8125 -8.40625 4.15625 -8.53125 C 4.507812 -8.65625 4.921875 -8.71875 5.390625 -8.71875 Z M 5.171875 -7.625 C 4.578125 -7.625 4.097656 -7.507812 3.734375 -7.28125 C 3.367188 -7.050781 3.101562 -6.707031 2.9375 -6.25 C 2.769531 -5.800781 2.679688 -5.234375 2.671875 -4.546875 L 2.671875 -4.296875 C 2.671875 -3.566406 2.75 -2.953125 2.90625 -2.453125 C 3.070312 -1.953125 3.335938 -1.570312 3.703125 -1.3125 C 4.066406 -1.050781 4.5625 -0.921875 5.1875 -0.921875 C 5.71875 -0.921875 6.160156 -1.0625 6.515625 -1.34375 C 6.867188 -1.632812 7.128906 -2.035156 7.296875 -2.546875 C 7.472656 -3.066406 7.5625 -3.660156 7.5625 -4.328125 C 7.5625 -5.335938 7.363281 -6.140625 6.96875 -6.734375 C 6.582031 -7.328125 5.984375 -7.625 5.171875 -7.625 Z M 5.171875 -7.625 "/></g></g></g><g fill="#333333" fill-opacity="1"><g transform="translate(231.400257, 272.455645)"><g><path d="M 8.75 -4.296875 C 8.75 -3.597656 8.65625 -2.972656 8.46875 -2.421875 C 8.289062 -1.867188 8.03125 -1.398438 7.6875 -1.015625 C 7.34375 -0.640625 6.925781 -0.347656 6.4375 -0.140625 C 5.957031 0.0546875 5.410156 0.15625 4.796875 0.15625 C 4.222656 0.15625 3.695312 0.0546875 3.21875 -0.140625 C 2.738281 -0.347656 2.328125 -0.640625 1.984375 -1.015625 C 1.640625 -1.398438 1.367188 -1.867188 1.171875 -2.421875 C 0.984375 -2.972656 0.890625 -3.597656 0.890625 -4.296875 C 0.890625 -5.234375 1.046875 -6.03125 1.359375 -6.6875 C 1.679688 -7.351562 2.140625 -7.859375 2.734375 -8.203125 C 3.328125 -8.546875 4.03125 -8.71875 4.84375 -8.71875 C 5.625 -8.71875 6.304688 -8.539062 6.890625 -8.1875 C 7.484375 -7.84375 7.941406 -7.34375 8.265625 -6.6875 C 8.585938 -6.03125 8.75 -5.234375 8.75 -4.296875 Z M 2.234375 -4.296875 C 2.234375 -3.609375 2.320312 -3.007812 2.5 -2.5 C 2.6875 -2 2.96875 -1.609375 3.34375 -1.328125 C 3.726562 -1.054688 4.222656 -0.921875 4.828125 -0.921875 C 5.421875 -0.921875 5.90625 -1.054688 6.28125 -1.328125 C 6.664062 -1.609375 6.945312 -2 7.125 -2.5 C 7.3125 -3.007812 7.40625 -3.609375 7.40625 -4.296875 C 7.40625 -4.984375 7.3125 -5.570312 7.125 -6.0625 C 6.945312 -6.5625 6.664062 -6.945312 6.28125 -7.21875 C 5.90625 -7.488281 5.414062 -7.625 4.8125 -7.625 C 3.925781 -7.625 3.273438 -7.328125 2.859375 -6.734375 C 2.441406 -6.148438 2.234375 -5.335938 2.234375 -4.296875 Z M 2.234375 -4.296875 "/></g></g></g><g fill="#333333" fill-opacity="1"><g transform="translate(241.022907, 272.455645)"><g><path d="M 8.34375 -0.015625 L 6.8125 -5 C 6.75 -5.21875 6.6875 -5.425781 6.625 -5.625 C 6.5625 -5.832031 6.503906 -6.03125 6.453125 -6.21875 C 6.410156 -6.414062 6.367188 -6.59375 6.328125 -6.75 C 6.285156 -6.914062 6.253906 -7.0625 6.234375 -7.1875 L 6.171875 -7.1875 C 6.148438 -7.0625 6.117188 -6.914062 6.078125 -6.75 C 6.046875 -6.59375 6.003906 -6.414062 5.953125 -6.21875 C 5.910156 -6.03125 5.859375 -5.828125 5.796875 -5.609375 C 5.742188 -5.398438 5.679688 -5.191406 5.609375 -4.984375 L 4.015625 -0.015625 L 2.546875 -0.015625 L 0.1875 -8.578125 L 1.53125 -8.578125 L 2.765625 -3.859375 C 2.847656 -3.546875 2.925781 -3.234375 3 -2.921875 C 3.082031 -2.617188 3.148438 -2.332031 3.203125 -2.0625 C 3.253906 -1.800781 3.296875 -1.570312 3.328125 -1.375 L 3.390625 -1.375 C 3.421875 -1.5 3.453125 -1.648438 3.484375 -1.828125 C 3.523438 -2.015625 3.570312 -2.210938 3.625 -2.421875 C 3.675781 -2.628906 3.726562 -2.832031 3.78125 -3.03125 C 3.84375 -3.238281 3.898438 -3.4375 3.953125 -3.625 L 5.53125 -8.578125 L 6.9375 -8.578125 L 8.453125 -3.625 C 8.535156 -3.375 8.613281 -3.113281 8.6875 -2.84375 C 8.757812 -2.570312 8.828125 -2.3125 8.890625 -2.0625 C 8.953125 -1.8125 9 -1.585938 9.03125 -1.390625 L 9.09375 -1.390625 C 9.113281 -1.566406 9.148438 -1.785156 9.203125 -2.046875 C 9.265625 -2.304688 9.332031 -2.59375 9.40625 -2.90625 C 9.476562 -3.21875 9.554688 -3.535156 9.640625 -3.859375 L 10.890625 -8.578125 L 12.21875 -8.578125 L 9.84375 -0.015625 Z M 8.34375 -0.015625 "/></g></g></g><g fill="#333333" fill-opacity="1"><g transform="translate(253.418322, 272.455645)"><g><path d="M 4.671875 -8.71875 C 5.398438 -8.71875 6.023438 -8.554688 6.546875 -8.234375 C 7.066406 -7.910156 7.460938 -7.457031 7.734375 -6.875 C 8.015625 -6.300781 8.15625 -5.625 8.15625 -4.84375 L 8.15625 -4.046875 L 2.234375 -4.046875 C 2.253906 -3.035156 2.503906 -2.265625 2.984375 -1.734375 C 3.472656 -1.210938 4.15625 -0.953125 5.03125 -0.953125 C 5.570312 -0.953125 6.050781 -1 6.46875 -1.09375 C 6.882812 -1.195312 7.316406 -1.347656 7.765625 -1.546875 L 7.765625 -0.40625 C 7.335938 -0.207031 6.910156 -0.0664062 6.484375 0.015625 C 6.054688 0.109375 5.554688 0.15625 4.984375 0.15625 C 4.160156 0.15625 3.441406 -0.0078125 2.828125 -0.34375 C 2.210938 -0.6875 1.734375 -1.179688 1.390625 -1.828125 C 1.054688 -2.484375 0.890625 -3.28125 0.890625 -4.21875 C 0.890625 -5.144531 1.046875 -5.941406 1.359375 -6.609375 C 1.671875 -7.285156 2.109375 -7.804688 2.671875 -8.171875 C 3.234375 -8.535156 3.898438 -8.71875 4.671875 -8.71875 Z M 4.65625 -7.65625 C 3.957031 -7.65625 3.398438 -7.425781 2.984375 -6.96875 C 2.578125 -6.519531 2.335938 -5.890625 2.265625 -5.078125 L 6.796875 -5.078125 C 6.785156 -5.585938 6.703125 -6.035156 6.546875 -6.421875 C 6.398438 -6.816406 6.171875 -7.117188 5.859375 -7.328125 C 5.546875 -7.546875 5.144531 -7.65625 4.65625 -7.65625 Z M 4.65625 -7.65625 "/></g></g></g><g fill="#333333" fill-opacity="1"><g transform="translate(262.400515, 272.455645)"><g><path d="M 5.265625 -8.71875 C 5.429688 -8.71875 5.609375 -8.707031 5.796875 -8.6875 C 5.984375 -8.675781 6.148438 -8.65625 6.296875 -8.625 L 6.140625 -7.421875 C 5.992188 -7.453125 5.832031 -7.476562 5.65625 -7.5 C 5.488281 -7.519531 5.332031 -7.53125 5.1875 -7.53125 C 4.84375 -7.53125 4.515625 -7.460938 4.203125 -7.328125 C 3.898438 -7.191406 3.632812 -6.992188 3.40625 -6.734375 C 3.175781 -6.472656 2.992188 -6.160156 2.859375 -5.796875 C 2.734375 -5.441406 2.671875 -5.039062 2.671875 -4.59375 L 2.671875 0 L 1.375 0 L 1.375 -8.5625 L 2.453125 -8.5625 L 2.59375 -6.984375 L 2.640625 -6.984375 C 2.816406 -7.304688 3.03125 -7.597656 3.28125 -7.859375 C 3.53125 -8.117188 3.820312 -8.328125 4.15625 -8.484375 C 4.488281 -8.640625 4.859375 -8.71875 5.265625 -8.71875 Z M 5.265625 -8.71875 "/></g></g></g><g fill="#333333" fill-opacity="1"><g transform="translate(268.937975, 272.455645)"><g><path d="M 2.671875 -8.5625 L 2.671875 0 L 1.375 0 L 1.375 -8.5625 Z M 2.03125 -11.765625 C 2.25 -11.765625 2.429688 -11.695312 2.578125 -11.5625 C 2.734375 -11.425781 2.8125 -11.210938 2.8125 -10.921875 C 2.8125 -10.628906 2.734375 -10.410156 2.578125 -10.265625 C 2.429688 -10.128906 2.25 -10.0625 2.03125 -10.0625 C 1.8125 -10.0625 1.625 -10.128906 1.46875 -10.265625 C 1.320312 -10.410156 1.25 -10.628906 1.25 -10.921875 C 1.25 -11.210938 1.320312 -11.425781 1.46875 -11.5625 C 1.625 -11.695312 1.8125 -11.765625 2.03125 -11.765625 Z M 2.03125 -11.765625 "/></g></g></g><g fill="#333333" fill-opacity="1"><g transform="translate(272.976045, 272.455645)"><g><path d="M 5.421875 -8.71875 C 6.441406 -8.71875 7.210938 -8.46875 7.734375 -7.96875 C 8.253906 -7.476562 8.515625 -6.679688 8.515625 -5.578125 L 8.515625 0 L 7.234375 0 L 7.234375 -5.5 C 7.234375 -6.207031 7.066406 -6.738281 6.734375 -7.09375 C 6.410156 -7.445312 5.914062 -7.625 5.25 -7.625 C 4.300781 -7.625 3.632812 -7.351562 3.25 -6.8125 C 2.863281 -6.28125 2.671875 -5.503906 2.671875 -4.484375 L 2.671875 0 L 1.375 0 L 1.375 -8.5625 L 2.421875 -8.5625 L 2.609375 -7.328125 L 2.6875 -7.328125 C 2.863281 -7.628906 3.09375 -7.882812 3.375 -8.09375 C 3.65625 -8.300781 3.96875 -8.457031 4.3125 -8.5625 C 4.664062 -8.664062 5.035156 -8.71875 5.421875 -8.71875 Z M 5.421875 -8.71875 "/></g></g></g><g fill="#333333" fill-opacity="1"><g transform="translate(282.786149, 272.455645)"><g><path d="M 3.765625 3.84375 C 2.640625 3.84375 1.769531 3.632812 1.15625 3.21875 C 0.550781 2.800781 0.25 2.210938 0.25 1.453125 C 0.25 0.921875 0.414062 0.460938 0.75 0.078125 C 1.09375 -0.304688 1.566406 -0.5625 2.171875 -0.6875 C 1.953125 -0.789062 1.757812 -0.945312 1.59375 -1.15625 C 1.4375 -1.363281 1.359375 -1.601562 1.359375 -1.875 C 1.359375 -2.1875 1.445312 -2.457031 1.625 -2.6875 C 1.800781 -2.925781 2.066406 -3.15625 2.421875 -3.375 C 1.972656 -3.5625 1.609375 -3.867188 1.328125 -4.296875 C 1.054688 -4.734375 0.921875 -5.242188 0.921875 -5.828125 C 0.921875 -6.441406 1.046875 -6.960938 1.296875 -7.390625 C 1.554688 -7.828125 1.925781 -8.160156 2.40625 -8.390625 C 2.894531 -8.617188 3.484375 -8.734375 4.171875 -8.734375 C 4.316406 -8.734375 4.46875 -8.726562 4.625 -8.71875 C 4.78125 -8.707031 4.925781 -8.6875 5.0625 -8.65625 C 5.207031 -8.632812 5.332031 -8.609375 5.4375 -8.578125 L 8.375 -8.578125 L 8.375 -7.75 L 6.796875 -7.546875 C 6.953125 -7.347656 7.082031 -7.101562 7.1875 -6.8125 C 7.289062 -6.53125 7.34375 -6.210938 7.34375 -5.859375 C 7.34375 -5.003906 7.050781 -4.328125 6.46875 -3.828125 C 5.894531 -3.328125 5.101562 -3.078125 4.09375 -3.078125 C 3.851562 -3.078125 3.609375 -3.097656 3.359375 -3.140625 C 3.097656 -2.992188 2.898438 -2.832031 2.765625 -2.65625 C 2.640625 -2.488281 2.578125 -2.296875 2.578125 -2.078125 C 2.578125 -1.910156 2.625 -1.773438 2.71875 -1.671875 C 2.820312 -1.578125 2.96875 -1.503906 3.15625 -1.453125 C 3.351562 -1.410156 3.585938 -1.390625 3.859375 -1.390625 L 5.375 -1.390625 C 6.300781 -1.390625 7.015625 -1.191406 7.515625 -0.796875 C 8.015625 -0.410156 8.265625 0.15625 8.265625 0.90625 C 8.265625 1.851562 7.878906 2.578125 7.109375 3.078125 C 6.335938 3.585938 5.222656 3.84375 3.765625 3.84375 Z M 3.796875 2.828125 C 4.503906 2.828125 5.09375 2.753906 5.5625 2.609375 C 6.03125 2.472656 6.378906 2.269531 6.609375 2 C 6.835938 1.726562 6.953125 1.410156 6.953125 1.046875 C 6.953125 0.703125 6.875 0.441406 6.71875 0.265625 C 6.5625 0.0859375 6.332031 -0.03125 6.03125 -0.09375 C 5.726562 -0.15625 5.359375 -0.1875 4.921875 -0.1875 L 3.4375 -0.1875 C 3.050781 -0.1875 2.710938 -0.125 2.421875 0 C 2.140625 0.125 1.921875 0.300781 1.765625 0.53125 C 1.617188 0.769531 1.546875 1.0625 1.546875 1.40625 C 1.546875 1.875 1.738281 2.226562 2.125 2.46875 C 2.519531 2.707031 3.078125 2.828125 3.796875 2.828125 Z M 4.140625 -4.015625 C 4.753906 -4.015625 5.21875 -4.171875 5.53125 -4.484375 C 5.84375 -4.796875 6 -5.253906 6 -5.859375 C 6 -6.492188 5.835938 -6.972656 5.515625 -7.296875 C 5.203125 -7.617188 4.738281 -7.78125 4.125 -7.78125 C 3.53125 -7.78125 3.070312 -7.613281 2.75 -7.28125 C 2.425781 -6.945312 2.265625 -6.460938 2.265625 -5.828125 C 2.265625 -5.242188 2.425781 -4.796875 2.75 -4.484375 C 3.070312 -4.171875 3.535156 -4.015625 4.140625 -4.015625 Z M 4.140625 -4.015625 "/></g></g></g><g fill="#333333" fill-opacity="1"><g transform="translate(291.471527, 272.455645)"><g/></g></g><g fill="#333333" fill-opacity="1"><g transform="translate(295.626785, 272.455645)"><g><path d="M 2.890625 0 L 1.5625 0 L 1.5625 -11.421875 L 7.921875 -11.421875 L 7.921875 -10.25 L 2.890625 -10.25 L 2.890625 -6.0625 L 7.625 -6.0625 L 7.625 -4.90625 L 2.890625 -4.90625 Z M 2.890625 0 "/></g></g></g><g fill="#333333" fill-opacity="1"><g transform="translate(303.882575, 272.455645)"><g><path d="M 4.578125 -8.703125 C 5.597656 -8.703125 6.351562 -8.472656 6.84375 -8.015625 C 7.34375 -7.554688 7.59375 -6.828125 7.59375 -5.828125 L 7.59375 0 L 6.640625 0 L 6.390625 -1.265625 L 6.328125 -1.265625 C 6.085938 -0.953125 5.835938 -0.691406 5.578125 -0.484375 C 5.316406 -0.273438 5.015625 -0.113281 4.671875 0 C 4.335938 0.101562 3.921875 0.15625 3.421875 0.15625 C 2.898438 0.15625 2.4375 0.0664062 2.03125 -0.109375 C 1.632812 -0.296875 1.316406 -0.570312 1.078125 -0.9375 C 0.847656 -1.3125 0.734375 -1.785156 0.734375 -2.359375 C 0.734375 -3.210938 1.070312 -3.867188 1.75 -4.328125 C 2.425781 -4.785156 3.457031 -5.035156 4.84375 -5.078125 L 6.328125 -5.140625 L 6.328125 -5.65625 C 6.328125 -6.394531 6.164062 -6.910156 5.84375 -7.203125 C 5.53125 -7.503906 5.082031 -7.65625 4.5 -7.65625 C 4.050781 -7.65625 3.625 -7.585938 3.21875 -7.453125 C 2.8125 -7.328125 2.425781 -7.175781 2.0625 -7 L 1.671875 -7.984375 C 2.054688 -8.179688 2.5 -8.347656 3 -8.484375 C 3.5 -8.628906 4.023438 -8.703125 4.578125 -8.703125 Z M 6.3125 -4.21875 L 5 -4.171875 C 3.9375 -4.128906 3.1875 -3.953125 2.75 -3.640625 C 2.3125 -3.335938 2.09375 -2.90625 2.09375 -2.34375 C 2.09375 -1.851562 2.238281 -1.488281 2.53125 -1.25 C 2.832031 -1.019531 3.226562 -0.90625 3.71875 -0.90625 C 4.476562 -0.90625 5.097656 -1.113281 5.578125 -1.53125 C 6.066406 -1.957031 6.3125 -2.59375 6.3125 -3.4375 Z M 6.3125 -4.21875 "/></g></g></g><g fill="#333333" fill-opacity="1"><g transform="translate(312.771041, 272.455645)"><g><path d="M 10.671875 -8.71875 C 11.609375 -8.71875 12.316406 -8.472656 12.796875 -7.984375 C 13.273438 -7.492188 13.515625 -6.703125 13.515625 -5.609375 L 13.515625 0 L 12.234375 0 L 12.234375 -5.546875 C 12.234375 -6.242188 12.082031 -6.765625 11.78125 -7.109375 C 11.488281 -7.453125 11.046875 -7.625 10.453125 -7.625 C 9.628906 -7.625 9.03125 -7.382812 8.65625 -6.90625 C 8.28125 -6.425781 8.09375 -5.722656 8.09375 -4.796875 L 8.09375 0 L 6.796875 0 L 6.796875 -5.546875 C 6.796875 -6.015625 6.726562 -6.398438 6.59375 -6.703125 C 6.46875 -7.015625 6.269531 -7.242188 6 -7.390625 C 5.738281 -7.546875 5.410156 -7.625 5.015625 -7.625 C 4.441406 -7.625 3.984375 -7.503906 3.640625 -7.265625 C 3.296875 -7.035156 3.046875 -6.691406 2.890625 -6.234375 C 2.742188 -5.773438 2.671875 -5.207031 2.671875 -4.53125 L 2.671875 0 L 1.375 0 L 1.375 -8.5625 L 2.421875 -8.5625 L 2.609375 -7.359375 L 2.6875 -7.359375 C 2.851562 -7.648438 3.066406 -7.894531 3.328125 -8.09375 C 3.585938 -8.300781 3.878906 -8.457031 4.203125 -8.5625 C 4.523438 -8.664062 4.867188 -8.71875 5.234375 -8.71875 C 5.890625 -8.71875 6.4375 -8.597656 6.875 -8.359375 C 7.3125 -8.117188 7.628906 -7.75 7.828125 -7.25 L 7.90625 -7.25 C 8.1875 -7.75 8.570312 -8.117188 9.0625 -8.359375 C 9.550781 -8.597656 10.085938 -8.71875 10.671875 -8.71875 Z M 10.671875 -8.71875 "/></g></g></g><g fill="#333333" fill-opacity="1"><g transform="translate(327.579923, 272.455645)"><g><path d="M 2.671875 -8.5625 L 2.671875 0 L 1.375 0 L 1.375 -8.5625 Z M 2.03125 -11.765625 C 2.25 -11.765625 2.429688 -11.695312 2.578125 -11.5625 C 2.734375 -11.425781 2.8125 -11.210938 2.8125 -10.921875 C 2.8125 -10.628906 2.734375 -10.410156 2.578125 -10.265625 C 2.429688 -10.128906 2.25 -10.0625 2.03125 -10.0625 C 1.8125 -10.0625 1.625 -10.128906 1.46875 -10.265625 C 1.320312 -10.410156 1.25 -10.628906 1.25 -10.921875 C 1.25 -11.210938 1.320312 -11.425781 1.46875 -11.5625 C 1.625 -11.695312 1.8125 -11.765625 2.03125 -11.765625 Z M 2.03125 -11.765625 "/></g></g></g><g fill="#333333" fill-opacity="1"><g transform="translate(331.617993, 272.455645)"><g><path d="M 2.671875 0 L 1.375 0 L 1.375 -12.15625 L 2.671875 -12.15625 Z M 2.671875 0 "/></g></g></g><g fill="#333333" fill-opacity="1"><g transform="translate(335.656064, 272.455645)"><g><path d="M 2.671875 -8.5625 L 2.671875 0 L 1.375 0 L 1.375 -8.5625 Z M 2.03125 -11.765625 C 2.25 -11.765625 2.429688 -11.695312 2.578125 -11.5625 C 2.734375 -11.425781 2.8125 -11.210938 2.8125 -10.921875 C 2.8125 -10.628906 2.734375 -10.410156 2.578125 -10.265625 C 2.429688 -10.128906 2.25 -10.0625 2.03125 -10.0625 C 1.8125 -10.0625 1.625 -10.128906 1.46875 -10.265625 C 1.320312 -10.410156 1.25 -10.628906 1.25 -10.921875 C 1.25 -11.210938 1.320312 -11.425781 1.46875 -11.5625 C 1.625 -11.695312 1.8125 -11.765625 2.03125 -11.765625 Z M 2.03125 -11.765625 "/></g></g></g><g fill="#333333" fill-opacity="1"><g transform="translate(339.694157, 272.455645)"><g><path d="M 4.671875 -8.71875 C 5.398438 -8.71875 6.023438 -8.554688 6.546875 -8.234375 C 7.066406 -7.910156 7.460938 -7.457031 7.734375 -6.875 C 8.015625 -6.300781 8.15625 -5.625 8.15625 -4.84375 L 8.15625 -4.046875 L 2.234375 -4.046875 C 2.253906 -3.035156 2.503906 -2.265625 2.984375 -1.734375 C 3.472656 -1.210938 4.15625 -0.953125 5.03125 -0.953125 C 5.570312 -0.953125 6.050781 -1 6.46875 -1.09375 C 6.882812 -1.195312 7.316406 -1.347656 7.765625 -1.546875 L 7.765625 -0.40625 C 7.335938 -0.207031 6.910156 -0.0664062 6.484375 0.015625 C 6.054688 0.109375 5.554688 0.15625 4.984375 0.15625 C 4.160156 0.15625 3.441406 -0.0078125 2.828125 -0.34375 C 2.210938 -0.6875 1.734375 -1.179688 1.390625 -1.828125 C 1.054688 -2.484375 0.890625 -3.28125 0.890625 -4.21875 C 0.890625 -5.144531 1.046875 -5.941406 1.359375 -6.609375 C 1.671875 -7.285156 2.109375 -7.804688 2.671875 -8.171875 C 3.234375 -8.535156 3.898438 -8.71875 4.671875 -8.71875 Z M 4.65625 -7.65625 C 3.957031 -7.65625 3.398438 -7.425781 2.984375 -6.96875 C 2.578125 -6.519531 2.335938 -5.890625 2.265625 -5.078125 L 6.796875 -5.078125 C 6.785156 -5.585938 6.703125 -6.035156 6.546875 -6.421875 C 6.398438 -6.816406 6.171875 -7.117188 5.859375 -7.328125 C 5.546875 -7.546875 5.144531 -7.65625 4.65625 -7.65625 Z M 4.65625 -7.65625 "/></g></g></g><g fill="#333333" fill-opacity="1"><g transform="translate(348.676327, 272.455645)"><g><path d="M 6.90625 -2.34375 C 6.90625 -1.800781 6.769531 -1.34375 6.5 -0.96875 C 6.226562 -0.59375 5.835938 -0.3125 5.328125 -0.125 C 4.816406 0.0625 4.210938 0.15625 3.515625 0.15625 C 2.910156 0.15625 2.390625 0.109375 1.953125 0.015625 C 1.515625 -0.078125 1.132812 -0.210938 0.8125 -0.390625 L 0.8125 -1.578125 C 1.15625 -1.410156 1.566406 -1.253906 2.046875 -1.109375 C 2.535156 -0.972656 3.035156 -0.90625 3.546875 -0.90625 C 4.285156 -0.90625 4.820312 -1.023438 5.15625 -1.265625 C 5.488281 -1.503906 5.65625 -1.828125 5.65625 -2.234375 C 5.65625 -2.472656 5.585938 -2.679688 5.453125 -2.859375 C 5.316406 -3.035156 5.09375 -3.207031 4.78125 -3.375 C 4.46875 -3.550781 4.035156 -3.738281 3.484375 -3.9375 C 2.941406 -4.144531 2.46875 -4.351562 2.0625 -4.5625 C 1.664062 -4.769531 1.359375 -5.019531 1.140625 -5.3125 C 0.929688 -5.613281 0.828125 -6 0.828125 -6.46875 C 0.828125 -7.195312 1.117188 -7.753906 1.703125 -8.140625 C 2.285156 -8.523438 3.054688 -8.71875 4.015625 -8.71875 C 4.523438 -8.71875 5.003906 -8.664062 5.453125 -8.5625 C 5.910156 -8.46875 6.332031 -8.332031 6.71875 -8.15625 L 6.28125 -7.125 C 5.925781 -7.269531 5.546875 -7.394531 5.140625 -7.5 C 4.742188 -7.601562 4.335938 -7.65625 3.921875 -7.65625 C 3.328125 -7.65625 2.867188 -7.554688 2.546875 -7.359375 C 2.222656 -7.160156 2.0625 -6.890625 2.0625 -6.546875 C 2.0625 -6.285156 2.132812 -6.066406 2.28125 -5.890625 C 2.4375 -5.722656 2.675781 -5.5625 3 -5.40625 C 3.332031 -5.257812 3.765625 -5.082031 4.296875 -4.875 C 4.835938 -4.675781 5.300781 -4.472656 5.6875 -4.265625 C 6.082031 -4.054688 6.382812 -3.800781 6.59375 -3.5 C 6.800781 -3.195312 6.90625 -2.8125 6.90625 -2.34375 Z M 6.90625 -2.34375 "/></g></g></g></svg>