<svg xmlns="http://www.w3.org/2000/svg" xmlns:xlink="http://www.w3.org/1999/xlink" width="500" zoomAndPan="magnify" viewBox="0 0 375 374.999991" height="500" preserveAspectRatio="xMidYMid meet" version="1.0"><path fill="#046307" d="M 68.433594 172.679688 C 69.292969 197.53125 90.144531 216.988281 114.996094 216.128906 C 123.144531 215.847656 130.710938 213.414062 137.171875 209.398438 C 133.09375 200.921875 124.289062 195.207031 114.285156 195.554688 C 100.792969 196.019531 89.472656 185.457031 89.007812 171.964844 C 88.539062 158.472656 99.101562 147.15625 112.59375 146.6875 C 122.59375 146.339844 130.988281 140.03125 134.46875 131.289062 C 127.742188 127.734375 120.027344 125.832031 111.882812 126.113281 C 87.027344 126.972656 67.570312 147.828125 68.433594 172.679688 Z M 108.78125 156.214844 C 117.089844 155.925781 124.0625 162.433594 124.351562 170.742188 C 124.640625 179.054688 118.132812 186.027344 109.824219 186.3125 C 101.511719 186.601562 94.539062 180.09375 94.253906 171.785156 C 93.964844 163.472656 100.46875 156.503906 108.78125 156.214844 Z M 108.78125 156.214844 " fill-opacity="1" fill-rule="evenodd"/><path fill="#d96c3c" d="M 128.285156 298.609375 C 152.1875 305.46875 177.136719 291.648438 183.996094 267.746094 C 186.246094 259.910156 186.273438 251.960938 184.449219 244.578125 C 175.128906 245.835938 166.96875 252.445312 164.207031 262.066406 C 160.484375 275.039062 146.941406 282.542969 133.964844 278.820312 C 120.988281 275.097656 113.488281 261.554688 117.210938 248.578125 C 119.972656 238.957031 116.5625 229.027344 109.324219 223.015625 C 103.863281 228.308594 99.671875 235.0625 97.421875 242.898438 C 90.5625 266.800781 104.382812 291.75 128.285156 298.609375 Z M 125.09375 255.148438 C 127.386719 247.152344 135.730469 242.53125 143.722656 244.828125 C 151.714844 247.121094 156.335938 255.460938 154.042969 263.457031 C 151.746094 271.449219 143.40625 276.070312 135.414062 273.773438 C 127.421875 271.480469 122.800781 263.140625 125.09375 255.148438 Z M 125.09375 255.148438 " fill-opacity="1" fill-rule="evenodd"/><path fill="#ffb6c1" d="M 266.546875 280.59375 C 280.457031 259.976562 275.019531 231.984375 254.410156 218.070312 C 247.652344 213.511719 240.101562 211.03125 232.515625 210.480469 C 230.832031 219.738281 234.597656 229.539062 242.890625 235.136719 C 254.082031 242.691406 257.035156 257.886719 249.484375 269.078125 C 241.929688 280.269531 226.734375 283.21875 215.542969 275.667969 C 207.246094 270.070312 196.746094 270.242188 188.796875 275.269531 C 192.144531 282.101562 197.269531 288.171875 204.027344 292.734375 C 224.640625 306.640625 252.636719 301.207031 266.546875 280.59375 Z M 224.226562 270.199219 C 217.335938 265.550781 215.515625 256.1875 220.167969 249.296875 C 224.820312 242.402344 234.179688 240.585938 241.074219 245.234375 C 247.964844 249.886719 249.78125 259.246094 245.132812 266.140625 C 240.480469 273.035156 231.117188 274.851562 224.226562 270.199219 Z M 224.226562 270.199219 " fill-opacity="1" fill-rule="evenodd"/><path fill="#10588c" d="M 292.132812 143.53125 C 276.828125 123.933594 248.519531 120.453125 228.921875 135.757812 C 222.496094 140.777344 217.804688 147.191406 214.9375 154.238281 C 223.21875 158.699219 233.703125 158.144531 241.59375 151.984375 C 252.230469 143.675781 267.597656 145.5625 275.90625 156.203125 C 284.21875 166.84375 282.328125 182.207031 271.691406 190.519531 C 263.800781 196.679688 260.722656 206.71875 263.046875 215.832031 C 270.578125 214.757812 277.9375 211.761719 284.363281 206.746094 C 303.960938 191.4375 307.4375 163.128906 292.132812 143.53125 Z M 269.171875 180.570312 C 262.621094 185.6875 253.152344 184.527344 248.035156 177.972656 C 242.917969 171.417969 244.082031 161.953125 250.632812 156.835938 C 257.1875 151.714844 266.652344 152.878906 271.773438 159.433594 C 276.890625 165.988281 275.726562 175.453125 269.171875 180.570312 Z M 269.171875 180.570312 " fill-opacity="1" fill-rule="evenodd"/><path fill="#50c4b7" d="M 169.683594 76.847656 C 146.3125 85.351562 134.257812 111.195312 142.757812 134.566406 C 145.546875 142.226562 150.195312 148.671875 156.011719 153.574219 C 162.8125 147.074219 165.527344 136.933594 162.105469 127.527344 C 157.488281 114.84375 164.035156 100.808594 176.71875 96.195312 C 189.40625 91.578125 203.4375 98.125 208.054688 110.808594 C 211.476562 120.214844 220.074219 126.242188 229.460938 126.851562 C 230.765625 119.359375 230.1875 111.429688 227.402344 103.769531 C 218.898438 80.402344 193.050781 68.34375 169.683594 76.847656 Z M 197.816406 110.128906 C 200.660156 117.945312 196.628906 126.585938 188.8125 129.429688 C 181 132.273438 172.355469 128.242188 169.511719 120.425781 C 166.667969 112.613281 170.703125 103.96875 178.515625 101.125 C 186.332031 98.285156 194.972656 102.316406 197.816406 110.128906 Z M 197.816406 110.128906 " fill-opacity="1" fill-rule="evenodd"/></svg>